<svg xmlns="http://www.w3.org/2000/svg" width="190" height="102" viewBox="0 0 190 102" fill="none"><path d="M94.8688 101.048C147.263 101.048 189.738 96.6724 189.738 91.2748C189.738 85.8773 147.263 81.5017 94.8688 81.5017C42.4742 81.5017 0 85.8773 0 91.2748C0 96.6724 42.4742 101.048 94.8688 101.048Z" fill="#E5E5E5"></path><path d="M50.332 87.1614C50.332 87.1614 38.3077 48.731 42.638 42.0305C46.9682 35.3299 57.2683 32.7275 56.0372 12.0356C54.4912 -13.9404 147.055 9.04617 153.342 16.8787C159.628 24.7113 151.002 86.3767 151.002 86.3767L50.332 87.1614Z" fill="#E6E5E5"></path><path d="M49.9375 32.1785C49.9159 31.9625 51.3557 27.7835 49.8115 27.6107C48.2673 27.4379 48.9116 31.734 48.9116 31.734C48.9116 31.734 42.9256 23.0573 41.6172 24.175C40.3087 25.2926 47.5978 31.7502 47.5978 31.7502C47.5978 31.7502 37.9349 27.7997 36.81 29.6552C35.6851 31.5108 46.1688 32.7634 46.1688 32.7634C46.1688 32.7634 32.433 37.1855 35.5394 39.8221C38.6458 42.4588 46.8293 33.7947 46.8293 33.7947C46.8293 33.7947 35.8903 45.5688 38.2642 47.5143C40.6381 49.4599 48.6543 34.5956 48.6543 34.5956C48.6543 34.5956 44.6678 47.2066 47.0759 47.2947C49.4839 47.3829 49.5595 34.943 49.5595 34.943C49.5595 34.943 50.3298 44.9011 52.4572 44.3629C54.5845 43.8248 50.6088 34.511 50.6088 34.511C50.6088 34.511 55.5294 37.9504 56.1143 36.147C56.6992 34.3436 50.5872 33.2044 50.5872 33.2044C50.5872 33.2044 53.7854 32.4521 53.1915 31.9643C52.5975 31.4766 49.9375 32.1785 49.9375 32.1785Z" fill="#9FBC6F"></path><path d="M61.8643 28.4908C61.8643 28.4908 54.586 27.4452 54.8632 26.1098C55.1404 24.7743 61.5655 27.1176 61.5655 27.1176C61.5655 27.1176 55.1152 19.1663 56.3156 17.0191C57.516 14.872 62.0623 25.4097 62.0623 25.4097C62.0623 25.4097 59.2276 12.2714 61.8661 10.3186C64.5045 8.36587 63.3815 24.4306 63.3815 24.4306C63.3815 24.4306 67.8809 8.47926 72.1229 7.10784C76.365 5.73642 66.1837 23.0628 66.1837 23.0628C66.1837 23.0628 76.4244 14.0513 77.5096 16.7294C78.5949 19.4074 66.711 25.5122 66.711 25.5122C66.711 25.5122 75.8287 23.4857 75.2239 26.9269C74.6192 30.368 63.4049 27.33 63.4049 27.33C63.4049 27.33 70.4186 30.7766 69.3981 33.127C68.3776 35.4775 61.8643 28.4908 61.8643 28.4908Z" fill="#9FBC6F"></path><path d="M60.7129 73.5372C60.6769 73.2492 56.8596 42.8206 49.7344 34.646L50.1429 34.2861C53.1845 37.7758 55.9436 45.1369 58.3427 56.1622C59.086 59.5728 59.6763 62.8214 60.1136 65.4598C60.011 63.0517 60.0056 60.1685 59.993 57.2115C59.8976 33.397 61.5678 25.1487 64.1667 23.2175L64.4906 23.6531C58.5856 28.0409 61.2259 73.1988 61.2511 73.476L60.7129 73.5372Z" fill="#9FBC6F"></path><path d="M59.5747 70.9995C59.5351 70.8771 55.2103 57.0244 50.6875 55.4856L50.8675 54.9726C52.8922 55.6601 54.9889 58.2572 57.1055 62.6882C58.6641 65.9566 60.0877 70.8034 60.0967 70.834L59.5747 70.9995Z" fill="#EAD8BE"></path><path d="M51.3571 54.3875C51.3571 54.3875 46.8577 49.0368 46.2728 50.5612C45.6879 52.0856 50.2737 54.5567 50.2737 54.5567C50.2737 54.5567 42.6283 54.4037 43.161 56.0613C43.6937 57.7189 49.507 55.4278 49.507 55.4278C49.507 55.4278 41.0013 61.3436 42.918 63.9659C44.8348 66.5881 50.0631 56.6588 50.0631 56.6588C50.0631 56.6588 47.9034 61.9411 49.5376 62.9994C51.1718 64.0577 51.2725 56.5382 51.2725 56.5382C51.2725 56.5382 52.734 62.6197 54.028 61.5128C55.322 60.4059 52.0698 55.9713 52.0698 55.9713C52.0698 55.9713 55.4894 56.5454 55.0143 55.4926C54.5391 54.4397 51.3571 54.3875 51.3571 54.3875Z" fill="#9FBC6F"></path><path d="M68.2016 74.5792L50.9508 75.2217L50.6484 71.3324L68.1476 70.8015L68.2016 74.5792Z" fill="#9FBC6F"></path><path d="M52.293 73.7081C52.293 73.7081 53.7058 85.8944 54.4527 86.1841C55.1996 86.4739 65.0947 86.2129 65.3971 85.7756C65.6994 85.3382 66.6299 73.1772 66.6299 73.1772L52.293 73.7081Z" fill="#9FBC6F"></path><path d="M153.752 86.6033C153.752 88.3041 146.073 87.7894 103.451 87.7894C76.0401 87.7894 46.5527 88.3563 46.5527 86.6555C46.5527 85.6602 62.0649 85.8312 103.965 85.8312C146.073 85.8312 153.752 85.608 153.752 86.6033Z" fill="#766782"></path><path d="M64.4889 80.5743C64.4889 80.5743 62.6334 86.8627 62.8403 86.9653C63.0473 87.0679 64.1794 87.0679 64.1794 87.0679C64.1794 87.0679 68.7148 81.296 68.7148 80.7813C68.7148 80.2665 64.4889 80.5743 64.4889 80.5743Z" fill="#72A7B9"></path><path d="M144.049 80.5743C144.049 80.5743 145.905 86.8627 145.698 86.9653C145.491 87.0679 144.359 87.0679 144.359 87.0679C144.359 87.0679 139.823 81.296 139.823 80.7813C139.823 80.2665 144.049 80.5743 144.049 80.5743Z" fill="#72A7B9"></path><path d="M137.968 80.2647C137.968 80.2647 139.824 86.5531 139.617 86.6557C139.41 86.7583 138.276 86.7583 138.276 86.7583C138.276 86.7583 133.742 80.9864 133.742 80.4717C133.742 79.957 137.968 80.2647 137.968 80.2647Z" fill="#72A7B9"></path><path d="M70.3645 80.2647C70.3645 80.2647 68.5089 86.5531 68.7141 86.6557C68.9193 86.7583 70.0549 86.7583 70.0549 86.7583C70.0549 86.7583 74.5939 80.9864 74.5939 80.4717C74.5939 79.957 70.3645 80.2647 70.3645 80.2647Z" fill="#72A7B9"></path><path d="M146.237 56.2106C147.276 49.026 147.744 42.9266 146.435 42.4352C143.136 41.1988 139.632 42.6422 138.086 42.8474C136.438 43.067 103.761 41.7135 103.039 42.8474C102.366 43.9056 102.411 44.604 102.42 44.6921C102.404 44.5428 102.166 42.6422 100.98 42.6422C99.7422 42.6422 63.3653 40.4825 62.2225 42.8474C61.3352 44.7029 62.4979 52.8451 63.0432 56.2952C60.8349 55.9497 56.0349 55.6725 56.1933 59.8048C56.3985 65.1645 60.7287 80.1097 61.8625 80.6263C62.9964 81.1428 68.9752 80.8314 68.9752 80.8314H140.505C140.505 80.8314 146.482 81.141 147.616 80.6263C148.75 80.1115 153.08 65.1645 153.285 59.8048C153.424 56.0307 148.613 55.9353 146.237 56.2106Z" fill="#9AE6FF"></path><path d="M141.433 76.4239C141.472 76.1899 141.118 76.0873 141.073 76.3249C140.817 77.6783 141.904 79.6076 140.571 80.5885C140.531 80.6162 140.503 80.6579 140.493 80.7053C140.482 80.7527 140.49 80.8022 140.515 80.844C140.539 80.8858 140.579 80.9168 140.625 80.9309C140.672 80.9449 140.722 80.9409 140.765 80.9197C142.394 80.0378 141.208 77.7755 141.433 76.4239Z" fill="#72A7B9"></path><path d="M67.6789 80.7489C66.9428 79.9948 67.3531 79.1561 67.4719 78.2526C67.5539 77.583 67.5124 76.9041 67.3495 76.2495C67.2937 76.0119 66.932 76.1127 66.9896 76.3484C67.1025 76.8299 67.1467 77.325 67.121 77.8188C67.0922 78.3246 66.941 78.7907 66.8564 79.2857C66.7466 79.948 66.8942 80.5689 67.4071 81.0224C67.5907 81.1862 67.8553 80.9288 67.6789 80.7489Z" fill="#72A7B9"></path><path d="M102.639 45.027C102.639 44.9793 102.62 44.9335 102.586 44.8998C102.553 44.866 102.507 44.847 102.459 44.847C102.411 44.847 102.366 44.866 102.332 44.8998C102.298 44.9335 102.279 44.9793 102.279 45.027C102.258 46.8826 102.279 48.7453 102.279 50.6063C102.284 50.6544 102.306 50.699 102.342 50.7315C102.378 50.764 102.424 50.782 102.473 50.782C102.521 50.782 102.568 50.764 102.603 50.7315C102.639 50.699 102.661 50.6544 102.666 50.6063C102.722 48.7489 102.724 46.8772 102.639 45.027Z" fill="#72A7B9"></path><path d="M83.0711 49.0999C83.3332 48.7868 83.6183 48.4938 83.9242 48.2234C84.2104 47.9732 84.5199 47.7464 84.7809 47.4711C85.067 47.1687 85.5494 46.3192 86.0245 46.3354C86.1901 47.0409 86.1271 47.8868 86.1199 48.6085C86.1127 49.3908 86.0677 50.1707 85.9849 50.9482C85.8686 51.7496 85.803 52.5575 85.7887 53.3671C85.8013 54.0132 85.9057 54.6503 85.9687 55.2911C86.0261 55.6153 86.0425 55.9454 86.0173 56.2737C85.9759 56.5167 85.8517 56.5329 85.625 56.5797C84.3255 56.8533 82.9937 56.9396 81.6835 57.1466C81.2317 57.2096 80.4542 57.4778 80.0151 57.3644C79.639 57.2672 79.369 56.7435 79.3132 56.3853C79.2759 56.0303 79.3114 55.6715 79.4176 55.3307C79.8495 53.7109 80.807 52.2873 81.7573 50.8996C82.162 50.2762 82.6006 49.6754 83.0711 49.0999V49.0999Z" fill="#72A7B9"></path><path d="M132.697 46.8034C133.516 46.0043 134.284 45.1459 135.148 44.3971C135.44 44.1434 135.735 43.9004 136.003 43.6268C135.982 43.5711 135.962 43.5153 135.942 43.4595C134.725 43.7618 133.377 43.3587 132.127 43.6089C131.254 43.7888 130.482 44.2658 129.726 44.7355C123.223 48.785 116.499 52.5861 110.756 57.656C109.021 59.1858 107.571 60.8686 105.926 62.4938C105.299 63.1129 104.666 63.732 104.081 64.3871C103.58 64.9415 103.098 65.5372 102.852 66.2409C103.723 66.3303 104.598 66.3694 105.474 66.3579L111.593 66.3975C113.004 66.4065 114.473 66.3975 115.732 65.782C116.463 65.3897 117.123 64.8795 117.687 64.272C119.847 62.1032 121.506 59.49 123.131 56.8929L123.83 55.7771C124.962 53.9665 127.116 53.135 128.748 51.76C128.988 51.5367 129.263 51.3543 129.562 51.2201" fill="#72A7B9"></path><path d="M125.752 49.323C124.552 50.0813 123.35 50.8402 122.144 51.5997C122.144 52.3544 122.114 53.1085 122.054 53.862C122.111 53.7684 122.169 53.682 122.234 53.5866C123.068 52.5874 124.017 51.6898 125.061 50.9122C125.396 50.6692 125.74 50.4424 126.089 50.2301C126.626 49.9892 127.186 49.8046 127.761 49.6793C127.084 49.5804 126.416 49.458 125.752 49.323Z" fill="#72A7B9"></path><path d="M103.451 66.3489C104.38 67.3802 104.07 74.8078 103.451 74.905C102.832 75.0022 67.5296 75.9849 66.8078 74.6476C66.0861 73.3104 66.5109 67.2794 67.1174 66.7107C68.766 65.1647 102.524 65.3195 103.451 66.3489Z" fill="#9AE6FF"></path><path d="M103.968 66.3489C103.039 67.3801 103.864 74.905 104.483 75.0075C105.102 75.1101 140.528 75.9866 141.25 74.6476C141.972 73.3086 141.626 67.1822 140.941 66.7106C135.921 63.2569 104.895 65.3194 103.968 66.3489Z" fill="#9AE6FF"></path><path d="M103.93 71.021C103.912 69.9267 103.895 68.8325 103.878 67.7382C103.878 67.6838 103.856 67.6316 103.818 67.5931C103.779 67.5547 103.727 67.533 103.673 67.533C103.618 67.533 103.566 67.5547 103.528 67.5931C103.489 67.6316 103.468 67.6838 103.468 67.7382C103.495 69.448 103.523 71.1578 103.55 72.8675C103.55 73.2761 103.579 73.6882 103.57 74.0986C103.556 74.6907 103.262 74.8599 102.721 74.8797C101.832 74.9139 100.935 74.8923 100.044 74.8995L89.9657 74.9715L79.6728 75.0435C76.3487 75.0669 72.9957 75.2234 69.677 74.9877C68.93 74.9355 67.9672 74.9337 67.3805 74.3919C66.7451 73.8034 66.9161 72.5922 66.9053 71.8147C66.8909 70.8932 66.8987 69.9723 66.9287 69.052C66.9539 68.2422 66.8585 66.8797 67.9294 66.7213C68.1274 66.6908 68.0824 66.3506 67.8826 66.3614C66.3582 66.5072 66.5292 68.5445 66.5058 69.6352C66.4842 70.589 66.486 71.5447 66.5058 72.4968C66.522 73.1519 66.4842 73.897 66.8909 74.4531C67.6882 75.5438 69.6086 75.4034 70.7838 75.4502C72.715 75.5258 74.6497 75.4826 76.5809 75.47L99.7276 75.3044C100.766 75.3044 101.817 75.3368 102.856 75.281C103.532 75.2432 103.935 74.9391 103.971 74.239C104.016 73.1771 103.939 72.0901 103.93 71.021Z" fill="#72A7B9"></path><path d="M142.177 69.1855C142.107 68.1182 141.875 66.6226 140.622 66.3598C140.365 66.3058 140.253 66.7 140.513 66.7558C141.79 67.0239 141.763 68.8813 141.803 69.882C141.83 70.6127 141.828 71.3452 141.794 72.0741C141.76 72.7742 141.821 73.6705 141.497 74.3076C141.191 74.9069 140.468 75.0275 139.861 75.0797C139.089 75.1427 138.308 75.1553 137.534 75.1859C136.035 75.2435 134.536 75.2879 133.035 75.3191C126.894 75.4486 120.751 75.3695 114.612 75.2201C112.906 75.1781 111.2 75.1319 109.494 75.0815L106.834 75.0023L105.606 74.9663C105.297 74.9663 104.434 75.0329 104.386 74.5506C104.362 74.322 104.01 74.313 104.026 74.5506C104.048 74.9843 104.375 75.2057 104.775 75.3011C105.495 75.472 106.31 75.3947 107.042 75.4163C108.781 75.469 110.521 75.5194 112.262 75.5674C115.809 75.6646 119.358 75.7474 122.907 75.7762C126.42 75.8104 129.926 75.7996 133.448 75.7204C135.221 75.6808 136.993 75.6208 138.767 75.5404C139.82 75.4936 141.364 75.5872 141.889 74.439C142.208 73.7407 142.174 72.8192 142.21 72.0705C142.253 71.109 142.242 70.1458 142.177 69.1855V69.1855Z" fill="#72A7B9"></path><path d="M139.689 65.9944C132.375 63.9318 124.69 64.9379 117.208 64.9487C117.16 64.947 117.112 64.9649 117.076 64.9983C117.04 65.0317 117.019 65.078 117.018 65.1269C117.016 65.1758 117.034 65.2234 117.067 65.2592C117.101 65.295 117.147 65.316 117.196 65.3177C124.667 65.3951 132.254 64.3602 139.571 66.3759C139.817 66.4443 139.936 66.0646 139.689 65.9944Z" fill="#72A7B9"></path><path d="M145.6 56.3278C144.16 56.8677 142.845 57.836 142.276 59.301C141.939 60.1685 141.826 61.144 141.641 62.0529C141.428 63.1057 141.212 64.1586 141.016 65.2151C140.976 65.4292 141.299 65.5246 141.349 65.3051C141.743 63.5701 142.046 61.8081 142.467 60.0857C142.881 58.3904 144.151 57.3573 145.706 56.7166C145.937 56.6158 145.843 56.2378 145.6 56.3278Z" fill="#72A7B9"></path><path d="M64.6162 62.3804C65.4909 63.8391 66.2399 65.3696 66.8551 66.9554C67.002 66.7563 67.1946 66.5955 67.4167 66.4865C67.6388 66.3775 67.8838 66.3235 68.1312 66.3291C68.1798 66.3287 68.2279 66.3398 68.2715 66.3615C68.3867 66.3649 68.5008 66.3855 68.6099 66.4226C68.6619 66.4405 68.7089 66.4708 68.7467 66.5108C69.31 66.8906 71.036 69.0035 74.8983 69.7504C78.0929 70.3695 82.783 68.1666 83.3572 67.2847C83.8665 66.4856 67.656 63.0211 64.6162 62.3804Z" fill="#72A7B9"></path><path d="M65.7753 50.322C65.7753 50.322 61.5495 50.7342 61.7565 51.868C61.9634 53.0019 63.0955 54.7476 63.405 56.0939C63.7146 57.4401 62.4782 58.8763 61.5495 59.4954C60.6208 60.1145 60.0035 60.6293 60.6226 61.0414C61.2417 61.4536 64.3319 62.2779 65.4658 63.4117C66.5996 64.5456 67.5283 65.5714 69.1769 66.4011C70.8255 67.2308 74.5366 68.3593 78.3557 68.3593C82.1748 68.3593 85.3658 66.5037 85.2632 65.782C85.1606 65.0603 69.904 51.0419 69.904 51.0419L65.7753 50.322Z" fill="#B0C1D3"></path><path d="M80.0873 66.7861C78.7951 66.383 77.4254 66.1562 76.0954 65.9205C74.7654 65.6847 73.3958 65.5605 72.0783 65.2257C69.6919 64.603 68.0775 62.6467 66.0977 61.3149C65.0341 60.5949 63.812 60.028 62.4982 60.0352C62.4743 60.0352 62.4514 60.0447 62.4346 60.0616C62.4177 60.0785 62.4082 60.1013 62.4082 60.1252C62.4082 60.1491 62.4177 60.172 62.4346 60.1888C62.4514 60.2057 62.4743 60.2152 62.4982 60.2152C65.0269 60.307 66.8608 62.1949 68.7344 63.6528C69.6073 64.3331 70.5341 64.9576 71.6014 65.3049C72.8612 65.7189 74.2381 65.8143 75.5429 66.0356C76.297 66.1652 77.0475 66.3038 77.7962 66.4586C78.5449 66.6134 79.2828 66.8185 80.0297 66.9679C80.0538 66.9756 80.08 66.9733 80.1024 66.9617C80.1249 66.95 80.1418 66.9299 80.1494 66.9058C80.157 66.8817 80.1548 66.8556 80.1431 66.8331C80.1315 66.8107 80.1114 66.7938 80.0873 66.7861V66.7861Z" fill="#93AABC"></path><path d="M66.0416 50.0268C64.8628 49.9296 63.7253 50.3219 62.6527 50.7719C62.4439 50.8601 62.5231 51.1984 62.748 51.121C63.8279 50.7413 64.8772 50.3453 66.0416 50.4245C66.2972 50.4407 66.2954 50.0466 66.0416 50.0268Z" fill="#93AABC"></path><path d="M64.3036 62.2599C63.46 61.7023 62.5302 61.2876 61.5518 61.0324C61.3502 60.9784 60.8498 60.9604 60.8211 60.6725C60.8013 60.4565 61.0946 60.1451 61.226 60.0102C61.5693 59.7006 61.9344 59.4161 62.3185 59.1589C63.5621 58.2014 64.4782 56.4592 63.3281 55.059C63.2057 54.9078 62.934 55.113 63.0546 55.2696C63.7745 56.2019 63.4523 57.4185 62.7216 58.2392C62.1439 58.8853 61.3016 59.2381 60.7635 59.9148C60.3675 60.4133 60.1911 61.1026 60.9434 61.3132C62.0791 61.6354 63.1032 61.9917 64.1074 62.6162C64.3234 62.7476 64.516 62.4038 64.3036 62.2599Z" fill="#93AABC"></path><path d="M86.5765 46.1159C86.3965 46.6145 86.1571 46.789 86.0168 46.8502C85.9811 46.8675 85.9428 46.8785 85.9034 46.8826C85.9034 46.8826 85.8854 47.0464 85.8476 47.3056C85.7324 48.1317 85.6676 50.2464 85.2501 51.0581C84.7101 52.1271 84.1792 52.0587 84.3232 52.6779C84.4672 53.297 82.8204 54.9474 82.8204 54.9474L75.7041 55.7717L73.0225 53.6299L75.3946 52.7823C75.3946 52.7823 75.4251 52.4223 76.3232 51.958C77.2213 51.4936 78.5531 49.8216 79.1057 48.848C79.6582 47.8743 80.6589 45.6804 80.6589 45.6804C80.6589 45.6804 80.2215 45.2952 80.0433 44.1704C79.8652 43.0455 79.8418 42.0557 80.7525 42.0773C81.6631 42.0988 85.2015 42.4876 85.8728 43.2705C86.5441 44.0534 86.8321 45.3762 86.5765 46.1159Z" fill="#394A8F"></path><path d="M80.7583 42.4714C80.7583 42.4714 79.1817 31.1077 78.7786 30.3608C78.5104 29.8749 77.8787 28.4063 77.8409 27.8915C77.8031 27.3768 77.2668 23.9015 77.5619 23.6747C77.8571 23.4479 78.2062 24.0454 78.3574 24.7545C78.5086 25.4637 78.6904 26.8027 78.9135 26.8909C79.1367 26.9791 79.1673 26.0486 79.4535 25.8218C79.7396 25.595 79.9664 25.7876 80.1734 25.6724C80.3804 25.5572 80.4613 25.3431 80.7709 25.3233C81.0805 25.3035 81.0931 25.5032 81.4008 25.4871C81.7086 25.4709 82.1207 25.3377 82.2233 25.4331C82.3259 25.5284 82.3601 25.9406 82.0649 26.1674C81.7698 26.3941 81.5106 26.4751 81.4206 26.6875C81.2998 26.9842 81.2851 27.3135 81.3792 27.6198C81.5034 27.9221 82.0775 28.6996 82.1117 29.2108C82.1459 29.7219 82.1855 29.9937 82.2053 30.3014C82.2251 30.6092 85.8048 43.3929 85.6609 43.8519C85.5223 44.2442 82.5671 44.0552 80.7583 42.4714Z" fill="#DA9572"></path><path d="M80.9098 29.3042C80.6974 28.9443 80.5625 28.8759 80.647 28.3468C80.674 28.183 80.7496 28.0354 80.7658 27.8662C80.8072 27.4397 80.6614 26.727 80.2043 26.5362C79.7148 26.3292 79.5042 27.1085 79.3404 27.4163C79.1766 27.724 78.9013 27.913 78.7285 28.1992C78.5323 28.5267 78.6799 29.0991 78.6421 29.459C78.6187 29.6804 78.9535 29.7578 78.9895 29.5292C79.0309 29.261 79.0129 28.9893 79.0453 28.7319C79.074 28.5051 79.0057 28.5033 79.2054 28.2496C79.272 28.165 79.3602 28.0966 79.4268 28.012C79.5553 27.8336 79.6663 27.6431 79.758 27.4433C79.8156 27.3281 79.8659 27.2093 79.9379 27.0995C80.0441 26.9196 80.0459 26.8098 80.2223 27.0851C80.3074 27.2325 80.361 27.3959 80.3796 27.5651C80.3982 27.7343 80.3814 27.9055 80.3303 28.0678C80.2745 28.2676 80.1503 28.4386 80.1593 28.6509C80.1731 28.8626 80.2517 29.0649 80.3843 29.2305C80.6296 29.5622 80.7936 29.9468 80.863 30.3535C80.8954 30.6019 81.2752 30.5821 81.2518 30.3283C81.2174 29.9653 81.1005 29.615 80.9098 29.3042V29.3042Z" fill="#CF8463"></path><path d="M86.0177 46.8502C85.9821 46.8675 85.9437 46.8785 85.9044 46.8826C85.9044 46.8826 85.8864 47.0464 85.8486 47.3056C85.337 47.3305 84.8242 47.2961 84.3206 47.203C83.4729 47.0734 82.4308 46.8268 81.8009 46.2077C81.7779 46.1747 81.7666 46.135 81.7688 46.0948C81.7711 46.0546 81.7867 46.0164 81.8132 45.9861C81.8397 45.9559 81.8756 45.9354 81.9151 45.9279C81.9547 45.9205 81.9955 45.9265 82.0313 45.9449C82.654 46.4543 83.5287 46.6649 84.3098 46.7926C84.8731 46.8963 85.4487 46.9157 86.0177 46.8502Z" fill="#293251"></path><path d="M94.0838 57.2853C93.9578 57.0171 93.5817 56.8785 93.3423 56.7616C92.3521 56.2634 91.254 56.018 90.1459 56.0471C89.2298 56.0471 88.2994 56.1694 87.4013 55.9265C86.6184 55.7159 85.9201 55.2822 85.175 54.9726C84.4884 54.6954 83.7556 54.5507 83.0152 54.546C81.2029 54.5065 79.1925 54.9996 77.3784 55.005C77.3028 54.7278 77.4828 53.9755 77.463 53.7056C77.4522 53.5598 73.9732 53.9881 73.6691 54.2851C73.5953 54.2959 73.5125 54.2959 73.5107 54.3949C73.4639 56.0507 75.2169 57.0585 76.5523 57.5823C78.3665 58.2932 80.3606 58.5955 82.2809 58.8529C84.2931 59.121 86.3178 59.2848 88.3318 59.535C89.3666 59.6628 90.3889 59.8626 91.4202 60.0047C92.2636 60.1521 93.1316 59.9767 93.8516 59.5134C93.8817 59.494 93.9065 59.4673 93.9236 59.4359C93.9407 59.4045 93.9497 59.3692 93.9497 59.3334C93.9497 59.2976 93.9407 59.2624 93.9236 59.2309C93.9065 59.1995 93.8817 59.1729 93.8516 59.1534L94.0514 58.0592C94.0838 57.8306 94.1936 57.5193 94.0838 57.2853Z" fill="#394A8F"></path><path d="M142.741 40.2883C142.561 40.6483 142.228 40.8984 141.922 41.1558C141.55 41.4944 141.197 41.855 140.868 42.2357C139.214 42.6179 137.596 43.1368 136.028 43.7871C135.101 44.1656 134.144 44.4666 133.167 44.6869C132.484 44.8417 131.79 44.9245 131.099 45.0289C133.19 43.4811 135.308 41.9225 137.697 40.8588C138.019 40.7149 138.353 40.5997 138.679 40.4683C138.976 40.3477 139.207 40.1407 139.541 40.0921C139.731 40.0868 139.919 40.0657 140.105 40.0291C140.239 39.9759 140.367 39.907 140.486 39.824C140.908 39.5611 141.37 39.369 141.854 39.2552C142.054 39.1887 142.271 39.1887 142.471 39.2552C142.837 39.4046 142.912 39.9266 142.741 40.2883Z" fill="#CF8463"></path><path d="M130.149 41.0964C131.334 40.3981 133.693 39.2139 134.829 38.4472C135.41 38.0095 135.946 37.5158 136.431 36.9732C137.771 35.3534 138.342 34.0018 139.67 32.3658C139.849 32.1097 140.09 31.9034 140.37 31.7664C140.66 31.6531 141.042 31.7143 141.2 31.9824C141.335 32.2092 141.272 32.5062 141.38 32.7527C141.456 32.9067 141.56 33.0448 141.688 33.1595C141.949 33.4276 142.21 33.757 142.179 34.1313C142.148 34.5057 141.837 34.826 141.916 35.1842C141.965 35.4038 142.15 35.5712 142.211 35.7871C142.316 36.1597 142.031 36.5178 141.943 36.8958C141.919 37.0838 141.915 37.2739 141.932 37.4627C141.919 37.6519 141.865 37.836 141.774 38.0026C141.617 38.3337 141.376 38.6174 141.074 38.8251C140.505 39.2139 139.994 39.725 139.454 40.1408C139.069 40.4725 138.636 40.7438 138.169 40.9453C137.714 41.0944 137.27 41.2749 136.839 41.4852C136.549 41.6436 136.263 41.8073 135.984 41.9819L130.149 41.0964Z" fill="#DA9572"></path><path d="M98.0921 66.1436C98.0921 66.1436 105.102 68.5139 110.05 64.2881C114.997 60.0622 120.668 53.1565 121.698 52.5374C122.727 51.9183 134.168 44.4979 136.436 41.9188C136.436 41.9188 136.746 39.3415 127.47 40.7849C127.47 40.7849 115.924 46.1446 114.691 46.9689C113.458 47.7932 100.473 57.9979 99.127 58.7196C97.7807 59.4413 94.7949 61.5506 94.7949 61.5506L98.0921 66.1436Z" fill="#B0C1D3"></path><path d="M93.8662 59.6466C93.8662 59.6466 101.391 49.4419 104.895 45.936C109.902 40.9308 111.184 41.4006 113.656 41.4006C116.129 41.4006 124.685 42.2267 127.875 41.8145C131.064 41.4024 126.843 47.4838 126.843 47.4838L98.497 64.5941L93.8662 59.6466Z" fill="#B0C1D3"></path><path d="M124.019 42.1637C122.276 42.9754 120.549 43.8231 118.814 44.6546C117.125 45.4645 115.432 46.2474 113.893 47.3273C112.309 48.4377 110.796 49.6562 109.259 50.8296L104.617 54.3752C103.609 55.1473 102.591 55.9104 101.583 56.6843C100.29 56.8078 99.0237 57.1314 97.8301 57.6435C97.634 57.7263 97.7761 58.0737 97.9759 57.9909C98.9414 57.5935 99.9501 57.3108 100.982 57.1486C100.474 57.5445 99.9682 57.9423 99.4679 58.3472C99.3203 58.4678 99.5183 58.727 99.6749 58.6154C102.835 56.3477 105.886 53.9162 108.978 51.5567C110.475 50.4139 111.958 49.2512 113.477 48.1372C114.996 47.0231 116.605 46.1754 118.293 45.3655C120.273 44.4171 122.253 43.4866 124.224 42.5183C124.458 42.3959 124.252 42.054 124.019 42.1637Z" fill="#93AABC"></path><path d="M106.713 64.1748C106.224 62.7359 105.19 61.546 103.834 60.8596C103.623 60.7516 103.436 61.0666 103.654 61.1782C104.898 61.8522 105.86 62.9507 106.362 64.2738C106.451 64.4897 106.789 64.407 106.713 64.1748Z" fill="#93AABC"></path><path d="M123.659 50.2374C122.428 51.5404 121.231 52.8777 120.036 54.2131C119.874 54.3931 120.139 54.663 120.304 54.4813C121.508 53.153 122.728 51.841 123.931 50.511C124.098 50.3274 123.83 50.0556 123.659 50.2374Z" fill="#72A7B9"></path><path d="M112.14 46.5929C109.843 48.2775 107.795 50.2769 106.055 52.5321C105.985 52.6221 106.109 52.7499 106.181 52.6581C107.923 50.4287 109.961 48.4475 112.239 46.7693C112.34 46.6883 112.243 46.5191 112.14 46.5929Z" fill="#93AABC"></path><path d="M116.709 45.1133C116.185 45.0799 115.66 45.1521 115.165 45.3257C114.918 45.408 114.677 45.5078 114.445 45.6245C114.15 45.7702 113.808 45.9304 113.619 45.5525C113.494 45.3077 113.305 44.8632 112.944 45.0125C112.582 45.1619 112.451 45.8296 112.404 46.1608C112.386 46.2688 112.548 46.3174 112.569 46.2076C112.612 45.9577 112.69 45.7152 112.801 45.4877C112.879 45.3347 112.981 45.0629 113.237 45.2555C113.301 45.3172 113.349 45.393 113.377 45.4769C113.516 45.7702 113.66 46.0168 114.029 45.9826C114.198 45.9498 114.36 45.889 114.509 45.8026C114.74 45.6887 114.978 45.5889 115.22 45.5039C115.7 45.3424 116.207 45.2728 116.712 45.2987C116.838 45.3203 116.837 45.1223 116.709 45.1133Z" fill="#93AABC"></path><path d="M76.651 55.4242C76.651 55.4242 80.4665 55.5268 83.3516 55.732C84.3648 55.8057 88.2109 57.053 92.4224 58.104C93.286 58.3454 94.117 58.6911 94.8971 59.1335C94.8971 59.1335 98.2986 61.9177 98.2986 64.3906C98.2986 66.8635 75.4668 60.1126 75.4668 60.1126L76.651 55.4242Z" fill="#293251"></path><path d="M70.3656 55.7322C70.3656 55.7322 65.7276 53.3619 65.5206 52.3306C65.3136 51.2993 65.7276 50.8908 65.3136 50.1709C64.8997 49.451 63.9764 48.3081 65.5206 47.0735L66.5519 45.9396C66.5519 45.9396 68.6126 45.5275 69.5413 44.7086C70.47 43.8897 70.8803 43.4722 71.1899 43.4722C71.4994 43.4722 71.2925 44.606 71.4994 44.5034C71.7064 44.4008 72.9392 43.9869 73.355 44.9156C73.7707 45.8443 73.0454 47.2859 73.0454 47.2859L70.3656 55.7322Z" fill="#773031"></path><path d="M72.5294 46.5586C73.0104 46.8538 73.4302 47.2388 73.7659 47.6924C74.2806 48.4123 74.6927 48.6211 75.0023 48.7237C75.3119 48.8263 76.1362 48.9289 76.1362 49.2384C76.1362 49.4328 75.9562 49.566 75.8356 49.6956C75.6556 49.8756 75.7312 50.0663 75.8554 50.2733C76.1027 50.6895 76.375 51.0904 76.6707 51.4738C76.9101 51.7851 77.1314 52.1289 77.0648 52.5374C76.9604 53.1565 74.0754 54.186 74.0754 54.186L75.1049 55.3198L70.2617 56.2485V51.1966C70.2617 51.1966 71.1886 50.6819 71.086 49.8576C70.9834 49.0333 70.5695 48.1046 71.086 47.5899C71.5269 47.193 72.0111 46.847 72.5294 46.5586V46.5586Z" fill="#DA9572"></path><path d="M68.8688 50.322C68.8688 50.322 65.9316 47.8023 66.5507 45.9396C66.5507 45.9396 65.3125 45.864 65.3125 46.9708C65.3125 48.4106 68.0445 51.1463 68.0445 51.1463L68.8688 50.322Z" fill="#394A8F"></path><path d="M67.7805 53.3222C68.3205 54.3139 69.6577 55.122 70.7789 54.5982C72.1162 53.9809 72.2188 52.8615 72.1936 52.4385C72.1234 51.0239 70.8437 49.6381 69.3607 49.8576C68.8208 49.9386 68.0703 50.3814 67.7877 50.8853C67.5699 51.2542 67.4544 51.6744 67.4531 52.1028C67.4519 52.5311 67.5649 52.9521 67.7805 53.3222V53.3222Z" fill="#293251"></path><path d="M71.1243 51.5026C70.8355 51.0747 70.4037 50.7636 69.9064 50.6251C69.4091 50.4865 68.8786 50.5297 68.4102 50.7467C68.2302 50.8223 68.3616 51.1193 68.5398 51.0545C69.3875 50.7503 70.3396 50.9681 70.8237 51.7618C71.3078 52.5555 71.0685 53.4734 70.4332 54.1015C70.2532 54.2815 70.5141 54.5137 70.6977 54.3679C71.1085 54.0262 71.379 53.5451 71.4577 53.0166C71.5364 52.4882 71.4177 51.9492 71.1243 51.5026V51.5026Z" fill="#394A8F"></path><path d="M74.0141 54.1788C73.7372 54.1935 73.4623 54.2351 73.1935 54.303C72.9577 54.3444 73.0603 54.6972 73.2924 54.663C73.5525 54.6415 73.8098 54.5951 74.0609 54.5244C74.098 54.5094 74.129 54.4825 74.149 54.4479C74.1691 54.4133 74.177 54.3731 74.1717 54.3335C74.1663 54.2938 74.1479 54.2572 74.1194 54.2292C74.0909 54.2012 74.0538 54.1835 74.0141 54.1788V54.1788Z" fill="#CF8463"></path><path d="M70.222 55.8365C71.3259 55.3848 72.4819 55.0729 73.6632 54.9078C75.4143 54.7026 76.136 54.4957 76.343 54.7026C76.55 54.9096 78.4037 56.8623 80.1567 57.2781C81.4957 57.5931 82.6296 57.692 83.2487 57.7946C83.8678 57.8972 87.165 59.0311 88.5058 59.4432C89.8466 59.8554 91.1857 60.1631 92.3195 60.5771C93.4534 60.991 94.8968 61.6083 95.4115 62.1231C95.9263 62.6378 96.9575 63.1543 98.4009 63.6691C99.8443 64.1838 101.281 64.8029 101.39 65.8288C101.5 66.8546 85.3094 66.0358 85.3094 66.0358L71.8112 59.5404C71.8112 59.5404 69.9754 56.4574 70.222 55.8365Z" fill="#394A8F"></path><path d="M95.5138 48.8264L96.4425 42.952C96.4425 42.952 95.6182 42.745 95.5138 42.952C95.4095 43.1589 94.4844 49.3411 94.4844 49.3411L95.5138 48.8264Z" fill="#394A8E"></path><path d="M89.3311 61.7108C89.3311 61.7108 90.7709 60.8865 92.2107 55.2172C92.4911 54.1288 92.6997 53.0232 92.8352 51.9075C92.9072 51.2829 92.7902 50.6854 92.7002 50.0681C92.6323 49.7052 92.6439 49.3318 92.7344 48.9738C92.7946 48.846 92.8689 48.7253 92.9558 48.6139C93.0476 48.4483 93.1358 48.2809 93.2221 48.1118C93.3337 47.8898 93.4381 47.6648 93.5353 47.4368C93.6055 47.2713 93.6397 46.9689 93.8665 46.9689C94.4064 46.9689 94.4064 47.6744 94.293 48.038C94.198 48.2623 94.1339 48.4984 94.1022 48.7399C94.1022 48.8821 94.1202 49.0998 94.3038 49.0296C94.4316 48.9536 94.545 48.8555 94.6386 48.7399C94.8752 48.4943 95.067 48.2092 95.2055 47.8976C95.5586 47.1026 95.8352 46.2757 96.0316 45.4283L96.1342 44.9136C96.1342 44.9136 96.6489 44.9136 96.6489 45.6335V46.6629C96.6489 46.6629 97.1654 47.0751 97.061 47.3828C96.9567 47.6906 96.8559 47.8994 96.9585 48.2071C97.061 48.5149 96.9585 49.0332 96.8559 49.4454C96.7533 49.8575 96.9585 50.0627 96.8559 50.6818C96.6002 51.2382 96.4262 51.8286 96.3393 52.4348C95.722 56.3763 94.662 64.342 93.5569 65.5245C92.1171 67.0705 89.3311 66.5558 89.3311 66.5558V61.7108Z" fill="#DA9572"></path><path d="M96.5343 46.7836C96.4303 47.2201 96.2757 47.6429 96.0736 48.0435C96.0196 48.1514 96.1779 48.2468 96.2355 48.1389C96.4576 47.7271 96.6183 47.2851 96.7125 46.8268C96.7305 46.717 96.5613 46.6666 96.5343 46.7836Z" fill="#CF8463"></path><path d="M96.6882 48.4179C96.6571 48.5191 96.6167 48.6173 96.5676 48.7112C96.5592 48.731 96.5583 48.7532 96.565 48.7736C96.5718 48.794 96.5857 48.8112 96.6043 48.8221C96.6229 48.8329 96.6448 48.8366 96.6658 48.8324C96.6869 48.8282 96.7058 48.8165 96.7188 48.7994C96.7796 48.6944 96.8279 48.5827 96.8628 48.4665C96.8693 48.4433 96.8662 48.4186 96.8544 48.3976C96.8426 48.3767 96.823 48.3613 96.7998 48.3549C96.7767 48.3484 96.7519 48.3515 96.731 48.3633C96.7101 48.3751 96.6947 48.3947 96.6882 48.4179V48.4179Z" fill="#CF8463"></path><path d="M90.1262 66.7755C90.1262 66.7755 89.8617 61.9287 89.5449 61.459C89.2281 60.9892 87.063 61.099 86.9604 61.4014L86.8561 61.7109C86.8561 61.7109 83.7641 60.2711 82.425 60.1649C81.086 60.0588 78.5069 57.0729 76.0341 56.6608C73.5612 56.2487 71.2917 57.1755 70.7769 58.3094C70.2622 59.4432 73.4568 64.5978 75.6219 65.4221C77.787 66.2463 86.1793 67.5098 90.1262 66.7755Z" fill="#394A8F"></path><path d="M89.4927 61.1999C88.834 60.9479 87.0252 60.5016 86.6832 61.459C86.6611 61.5198 86.6478 61.5835 86.6437 61.648C85.7726 61.3817 85.0131 60.8669 84.16 60.5574C83.3069 60.2478 82.2828 60.3774 81.4603 59.9346C80.7404 59.5495 80.1879 58.8548 79.5418 58.3598C78.8351 57.8151 78.0607 57.3644 77.2381 57.019C77.0581 56.9452 76.9339 57.2458 77.1049 57.3358C77.9761 57.7743 78.802 58.2975 79.5706 58.898C80.1735 59.3875 80.7134 60.039 81.4333 60.3666C82.2594 60.7463 83.2097 60.6384 84.0592 60.9479C84.9087 61.2575 85.697 61.792 86.5897 62.0548C86.6187 62.0608 86.6488 62.0608 86.6778 62.0548C86.6778 62.0908 86.6886 62.1286 86.6922 62.1664C86.7354 62.5353 86.7678 62.9079 86.7894 63.2786C86.8344 64.0597 86.7894 64.8336 86.7894 65.6183C86.7894 65.8685 87.1368 65.8523 87.1674 65.6183C87.2742 64.5721 87.2603 63.5171 87.126 62.4741C87.0816 62.2639 87.0575 62.05 87.054 61.8352C87.1008 61.4159 87.3942 61.3439 87.7505 61.3205C88.308 61.3013 88.8647 61.3792 89.3955 61.5508C89.6259 61.6264 89.7123 61.2845 89.4927 61.1999Z" fill="#293251"></path><path d="M76.3434 54.7026C76.3218 54.5838 76.1436 54.5838 76.1364 54.7026C76.1124 55.3074 76.1208 55.9129 76.1616 56.5168C75.2337 56.3901 74.2902 56.4402 73.381 56.6644C72.4685 56.8749 71.4912 57.1647 70.7371 57.7442C70.6363 57.8198 70.7371 57.9926 70.8361 57.9152C71.5668 57.3753 72.4685 57.0963 73.3414 56.8857C74.3306 56.6743 75.3515 56.6578 76.347 56.8371C76.3622 56.8413 76.3782 56.8419 76.3936 56.8388C76.4091 56.8358 76.4237 56.8293 76.4362 56.8197C76.4488 56.8101 76.4589 56.7978 76.4659 56.7836C76.4729 56.7695 76.4766 56.7539 76.4766 56.7381C76.4298 56.1352 76.4514 55.2983 76.3434 54.7026Z" fill="#293251"></path><path d="M84.8013 67.0526C82.9565 64.326 79.0816 64.047 76.2686 62.7602C75.3843 62.3767 74.5821 61.8268 73.9055 61.1404C73.5184 60.7203 73.1725 60.2641 72.8724 59.778C72.5952 59.3425 72.4675 58.9051 72.2497 58.4444C71.7745 57.4096 71.1658 56.4414 70.4391 55.5647C69.5672 54.5112 68.4498 53.688 67.1852 53.1675C66.6673 52.9981 66.1585 52.8022 65.6607 52.5807C65.254 52.3702 64.8095 52.2766 64.4009 52.066C64.3618 52.0467 64.3171 52.0422 64.2749 52.0534C64.2478 52.0535 64.2211 52.0601 64.1971 52.0727C64.1731 52.0853 64.1524 52.1035 64.1369 52.1257C64.1214 52.1479 64.1114 52.1736 64.1079 52.2005C64.1044 52.2273 64.1073 52.2547 64.1166 52.2802C64.6691 53.9936 65.2828 55.6871 66.3033 57.1863C67.2762 58.5647 68.4258 59.8094 69.7228 60.8884C71.0115 61.9863 72.669 63.9661 74.0765 64.9073C75.6135 65.944 77.496 65.899 79.2292 66.4533C80.624 66.8961 81.2971 66.9933 82.6307 67.5872C83.3182 67.2856 84.0524 67.1048 84.8013 67.0526Z" fill="#B0C1D3"></path><path d="M65.4882 52.3107C65.1171 52.072 64.7125 51.89 64.2877 51.7707C64.24 51.7578 64.1891 51.7644 64.1463 51.7891C64.1034 51.8137 64.0721 51.8544 64.0592 51.9021C64.0463 51.9498 64.0529 52.0007 64.0775 52.0436C64.1022 52.0865 64.1428 52.1178 64.1906 52.1307C64.5779 52.2621 64.9464 52.4436 65.2866 52.6706C65.5008 52.8074 65.7042 52.4474 65.4882 52.3107Z" fill="#93AABC"></path><path d="M77.2276 63.687C76.2467 63.111 75.2299 62.5621 74.4434 61.7216C73.6569 60.8811 73.2879 59.7617 72.5284 58.914C72.4078 58.7808 72.1955 58.9518 72.2818 59.1048C72.8614 60.109 73.4121 61.2231 74.2184 62.069C75.0247 62.9149 76.0344 63.489 77.0296 64.0253C77.0743 64.0491 77.1265 64.0546 77.1752 64.0408C77.2239 64.027 77.2654 63.9949 77.291 63.9511C77.3166 63.9074 77.3242 63.8555 77.3124 63.8063C77.3006 63.7571 77.2702 63.7143 77.2276 63.687V63.687Z" fill="#93AABC"></path><path d="M76.0678 50.7952C76.0304 50.7407 75.9796 50.6967 75.9203 50.6674C75.8272 50.6475 75.7301 50.6636 75.6485 50.7124L74.9538 51.0219C74.9304 51.0327 74.9052 51.0471 74.9034 51.0723C74.9016 51.0975 74.9322 51.1155 74.9574 51.1263L75.4973 51.3459C75.715 51.441 75.9509 51.4871 76.1884 51.4809C76.2099 51.4844 76.2318 51.4844 76.2532 51.4809C76.507 51.3675 76.129 50.8708 76.0678 50.7952Z" fill="white"></path><path d="M125.902 4.49805C125.902 4.44507 125.924 4.39426 125.961 4.35679C125.998 4.31933 126.049 4.29828 126.102 4.29828C126.155 4.29828 126.206 4.31933 126.244 4.35679C126.281 4.39426 126.302 4.44507 126.302 4.49805V30.7152H126.691L126.583 3.94373L89.6084 4.26408L89.8226 30.7206H125.902V4.49805Z" fill="#85888C"></path><path d="M124.761 5.44653H91.0029V29.5364H124.761V5.44653Z" fill="#E6E6E4"></path><path d="M91.3861 36.7248C91.4851 35.7727 91.7047 33.1378 91.7155 32.9848C91.7335 32.7545 88.4489 33.739 88.4399 33.7965C88.2599 34.9826 88.116 37.4105 88.116 37.4105C87.6606 37.2989 87.0361 37.5707 86.7409 37.873C86.6823 37.9252 86.6346 37.9885 86.6006 38.0592C86.5666 38.13 86.547 38.2068 86.543 38.2852C86.5594 38.3894 86.606 38.4865 86.677 38.5646C86.748 38.6426 86.8403 38.6982 86.9425 38.7243C87.142 38.7729 87.3498 38.777 87.551 38.7362C87.7523 38.6955 87.9421 38.6109 88.107 38.4885C88.2197 38.404 88.3143 38.2977 88.3851 38.1758C88.4559 38.054 88.5014 37.9192 88.5191 37.7794C88.6199 36.7662 88.7603 34.7198 88.7603 34.7198C89.8725 34.3779 90.3531 34.2141 91.2008 34.0845C91.1198 34.8638 91.0406 35.6449 90.9722 36.4242C90.5187 36.3306 89.9139 36.6042 89.6242 36.8957C89.5651 36.9477 89.517 37.0109 89.4827 37.0816C89.4484 37.1524 89.4286 37.2293 89.4244 37.3079C89.4413 37.412 89.4882 37.5089 89.5596 37.5867C89.6309 37.6644 89.7234 37.7195 89.8257 37.7452C90.2145 37.873 90.6464 37.7344 90.9884 37.5095C91.2548 37.3295 91.3321 37.0901 91.3861 36.7248Z" fill="white"></path><path d="M97.3426 36.3756C97.453 36.2583 97.5252 36.1102 97.5496 35.9509C97.4135 36.0392 97.2527 36.0816 97.0907 36.0718C96.9288 36.0621 96.7742 36.0008 96.6497 35.8969C96.564 35.8 96.4694 35.7115 96.3671 35.6323C96.2909 35.5907 96.2067 35.5657 96.1201 35.5592C96.0335 35.5527 95.9465 35.5647 95.865 35.5945C95.3251 35.7745 95.4258 36.0535 95.505 36.5214C95.5806 36.948 95.6652 37.3727 95.7516 37.7975C95.8596 38.323 95.973 38.8503 96.0917 39.374C95.6364 39.3956 95.1307 39.8186 94.9381 40.1821C94.8969 40.2463 94.8692 40.3181 94.8565 40.3933C94.8438 40.4684 94.8465 40.5454 94.8643 40.6195C94.9075 40.7127 94.9775 40.7909 95.0653 40.8441C95.1532 40.8973 95.2549 40.9231 95.3574 40.9182C95.5568 40.9088 95.7516 40.8555 95.928 40.7622C96.1043 40.6689 96.258 40.5378 96.3779 40.3783C96.4596 40.2685 96.5186 40.1435 96.5514 40.0106C96.5841 39.8777 96.59 39.7396 96.5687 39.6044C96.4499 38.9727 96.3149 38.3446 96.1817 37.7165C96.1673 37.6499 95.9316 36.3432 95.9586 36.3504C96.1709 36.4008 96.3545 36.5412 96.5651 36.597C96.673 36.625 96.7855 36.6302 96.8956 36.6123C97.0056 36.5943 97.1106 36.5535 97.204 36.4926C97.2547 36.4593 97.3013 36.4201 97.3426 36.3756V36.3756Z" fill="white"></path><path d="M101.909 37.5941L101.927 37.6067C102.098 37.6984 102.229 37.5221 102.237 37.3637C102.223 37.22 102.19 37.0789 102.138 36.9443C102.055 36.6204 101.974 36.2964 101.891 35.9725C101.729 35.3407 101.571 34.7126 101.396 34.0773C101.376 34.0035 101.355 33.9297 101.333 33.8559C101.826 33.7965 102.345 33.298 102.526 32.8877C102.566 32.8144 102.59 32.7339 102.598 32.6511C102.605 32.5682 102.597 32.4847 102.571 32.4053C102.517 32.3077 102.435 32.2284 102.336 32.1774C102.237 32.1265 102.124 32.1062 102.013 32.1192C101.58 32.1354 101.202 32.4323 100.944 32.7815C100.864 32.9071 100.809 33.0477 100.784 33.1949C100.758 33.342 100.763 33.4928 100.797 33.6382C101.106 34.8152 101.396 35.9977 101.688 37.1783C101.706 37.3399 101.785 37.4885 101.909 37.5941Z" fill="white"></path></svg>