<svg xmlns="http://www.w3.org/2000/svg" width="190" height="111" viewBox="0 0 190 111" fill="none"><path d="M94.8688 110.656C147.263 110.656 189.738 106.281 189.738 100.883C189.738 95.4855 147.263 91.1099 94.8688 91.1099C42.4742 91.1099 0 95.4855 0 100.883C0 106.281 42.4742 110.656 94.8688 110.656Z" fill="#E5E5E5"></path><path d="M130.086 100.131H127.57V100.189H130.086V100.131Z" fill="#ECECEC"></path><path d="M117.828 0H131.013C131.412 0 131.794 0.15841 132.076 0.440382C132.358 0.722355 132.516 1.10479 132.516 1.50356V99.4084C132.516 99.8532 132.34 100.28 132.025 100.594C131.711 100.909 131.284 101.085 130.839 101.085H118.001C117.556 101.085 117.13 100.909 116.815 100.594C116.501 100.28 116.324 99.8532 116.324 99.4084V1.50356C116.324 1.10479 116.483 0.722355 116.765 0.440382C117.047 0.15841 117.429 0 117.828 0V0Z" fill="#394A8F"></path><path d="M130.753 0H118.088C117.114 0 116.324 0.789676 116.324 1.76379V99.3217C116.324 100.296 117.114 101.085 118.088 101.085H130.753C131.727 101.085 132.516 100.296 132.516 99.3217V1.76379C132.516 0.789676 131.727 0 130.753 0Z" fill="#394A8F"></path><path d="M120.892 1.79272H119.186C118.961 1.7926 118.744 1.88001 118.582 2.03649C118.421 2.19296 118.326 2.40624 118.318 2.63125V40.2202C118.318 40.4503 118.41 40.671 118.572 40.8336C118.735 40.9963 118.956 41.0877 119.186 41.0877H120.892C121.004 41.0878 121.116 41.0651 121.219 41.0212C121.323 40.9773 121.417 40.9129 121.495 40.832C121.573 40.751 121.635 40.6551 121.675 40.55C121.715 40.4449 121.734 40.3328 121.73 40.2202V40.0178C121.73 39.9077 121.709 39.7987 121.666 39.697C121.624 39.5952 121.563 39.5028 121.485 39.4249C121.407 39.3471 121.314 39.2853 121.213 39.2432C121.111 39.201 121.002 39.1793 120.892 39.1793H120.516C120.403 39.1794 120.292 39.1568 120.188 39.1129C120.084 39.0689 119.991 39.0046 119.912 38.9236C119.834 38.8426 119.773 38.7467 119.733 38.6417C119.692 38.5366 119.673 38.4244 119.677 38.3119V4.33722C119.677 4.22711 119.699 4.11805 119.741 4.01632C119.783 3.91458 119.845 3.82216 119.923 3.74429C120.001 3.66643 120.093 3.60466 120.195 3.56252C120.297 3.52038 120.406 3.4987 120.516 3.4987H120.892C121.117 3.49119 121.33 3.39649 121.487 3.23462C121.643 3.07275 121.73 2.85639 121.73 2.63125V2.63125C121.73 2.40886 121.642 2.19557 121.485 2.03832C121.327 1.88107 121.114 1.79272 120.892 1.79272V1.79272Z" fill="#394A8F"></path><path d="M120.892 1.79272H119.186C118.961 1.7926 118.744 1.88001 118.582 2.03649C118.421 2.19296 118.326 2.40624 118.318 2.63125V40.2202C118.318 40.4503 118.41 40.671 118.572 40.8336C118.735 40.9963 118.956 41.0877 119.186 41.0877H120.892C121.004 41.0878 121.116 41.0651 121.219 41.0212C121.323 40.9773 121.417 40.9129 121.495 40.832C121.573 40.751 121.635 40.6551 121.675 40.55C121.715 40.4449 121.734 40.3328 121.73 40.2202V40.0178C121.73 39.9077 121.709 39.7987 121.666 39.697C121.624 39.5952 121.563 39.5028 121.485 39.4249C121.407 39.3471 121.314 39.2853 121.213 39.2432C121.111 39.201 121.002 39.1793 120.892 39.1793H120.516C120.403 39.1794 120.292 39.1568 120.188 39.1129C120.084 39.0689 119.991 39.0046 119.912 38.9236C119.834 38.8426 119.773 38.7467 119.733 38.6417C119.692 38.5366 119.673 38.4244 119.677 38.3119V4.33722C119.677 4.22711 119.699 4.11805 119.741 4.01632C119.783 3.91458 119.845 3.82216 119.923 3.74429C120.001 3.66643 120.093 3.60466 120.195 3.56252C120.297 3.52038 120.406 3.4987 120.516 3.4987H120.892C121.117 3.49119 121.33 3.39649 121.487 3.23462C121.643 3.07275 121.73 2.85639 121.73 2.63125V2.63125C121.73 2.40886 121.642 2.19557 121.485 2.03832C121.327 1.88107 121.114 1.79272 120.892 1.79272V1.79272Z" fill="#4B6FC7"></path><path d="M120.401 13.9948L115.659 11.1034C115.48 11.0438 115.287 11.0438 115.109 11.1034L113.316 11.5371C113.151 11.5709 113.002 11.6617 112.896 11.7938C112.791 11.9259 112.735 12.0908 112.738 12.2599V12.8961C112.731 13.0347 112.766 13.1722 112.838 13.2907C112.911 13.4093 113.017 13.5034 113.143 13.5611L116.352 15.2092C116.469 15.2791 116.566 15.3761 116.637 15.4919C116.707 15.6078 116.749 15.739 116.757 15.8743V15.8743C116.753 15.9741 116.77 16.0737 116.806 16.1667C116.843 16.2598 116.898 16.3443 116.968 16.4149C117.039 16.4856 117.124 16.5408 117.217 16.5771C117.31 16.6135 117.409 16.6301 117.509 16.6261H119.996C120.096 16.6301 120.195 16.6135 120.288 16.5771C120.381 16.5408 120.466 16.4856 120.536 16.4149C120.607 16.3443 120.662 16.2598 120.699 16.1667C120.735 16.0737 120.752 15.9741 120.747 15.8743V14.6309C120.754 14.5032 120.725 14.3762 120.664 14.264C120.602 14.1517 120.511 14.0586 120.401 13.9948V13.9948Z" fill="#394A8F"></path><path d="M120.401 13.9948L115.659 11.1034C115.48 11.0438 115.287 11.0438 115.109 11.1034L113.316 11.5371C113.151 11.5709 113.002 11.6617 112.896 11.7938C112.791 11.9259 112.735 12.0908 112.738 12.2599V12.8961C112.731 13.0347 112.766 13.1722 112.838 13.2907C112.911 13.4093 113.017 13.5034 113.143 13.5611L116.352 15.2092C116.469 15.2791 116.566 15.3761 116.637 15.4919C116.707 15.6078 116.749 15.739 116.757 15.8743V15.8743C116.753 15.9741 116.77 16.0737 116.806 16.1667C116.843 16.2598 116.898 16.3443 116.968 16.4149C117.039 16.4856 117.124 16.5408 117.217 16.5771C117.31 16.6135 117.409 16.6301 117.509 16.6261H119.996C120.096 16.6301 120.195 16.6135 120.288 16.5771C120.381 16.5408 120.466 16.4856 120.536 16.4149C120.607 16.3443 120.662 16.2598 120.699 16.1667C120.735 16.0737 120.752 15.9741 120.747 15.8743V14.6309C120.754 14.5032 120.725 14.3762 120.664 14.264C120.602 14.1517 120.511 14.0586 120.401 13.9948V13.9948Z" fill="#394A8F"></path><path opacity="0.2" d="M120.429 16.4815C120.288 16.5278 120.136 16.5278 119.995 16.4815H117.509C117.309 16.4752 117.116 16.4042 116.959 16.2791C116.828 16.1262 116.756 15.9312 116.757 15.7297C116.748 15.5944 116.707 15.4632 116.636 15.3473C116.566 15.2315 116.468 15.1345 116.352 15.0647L113.143 13.4165C113.027 13.3546 112.927 13.2652 112.854 13.1563L114.878 12.578C115.023 12.5143 115.181 12.4814 115.34 12.4814C115.499 12.4814 115.657 12.5143 115.803 12.578L118.897 14.602C119.005 14.6681 119.095 14.7618 119.156 14.8735C119.217 14.9852 119.247 15.111 119.244 15.2381C119.24 15.348 119.262 15.4571 119.307 15.5574C119.352 15.6576 119.419 15.7462 119.504 15.8164C119.589 15.8373 119.679 15.8373 119.764 15.8164L120.429 16.4815Z" fill="black"></path><path d="M119.301 51.5838C119.301 52.8849 118.578 53.9259 117.653 53.9259C116.728 53.9259 116.005 52.8849 116.005 51.5838C116.005 50.2826 116.757 49.2417 117.653 49.2417C118.549 49.2417 119.301 50.2537 119.301 51.5838Z" fill="#394A8F"></path><path d="M124.535 51.5838C124.535 52.8849 123.812 53.9258 122.916 53.9258H117.653C118.579 53.9258 119.301 52.8849 119.301 51.5838C119.301 50.2826 118.579 49.2417 117.653 49.2417H122.916C123.812 49.2128 124.535 50.2537 124.535 51.5838Z" fill="#394A8F"></path><path d="M124.535 51.5838C124.535 52.8849 123.812 53.9258 122.916 53.9258H117.653C118.579 53.9258 119.301 52.8849 119.301 51.5838C119.301 50.2826 118.579 49.2417 117.653 49.2417H122.916C123.812 49.2128 124.535 50.2537 124.535 51.5838Z" fill="#4B6FC7"></path><path d="M120.92 69.4529H120.747C120.086 69.3535 119.481 69.0284 119.033 68.5329C118.585 68.0375 118.322 67.4021 118.289 66.7349C118.289 65.2892 118.289 54.3595 118.289 53.8968H119.157C119.157 53.8968 119.157 65.2603 119.157 66.6771C119.181 67.1373 119.36 67.5757 119.665 67.9218C119.969 68.268 120.381 68.5017 120.834 68.5854C121.643 68.5854 122.308 68.065 122.626 66.9084C123.234 64.8555 119.07 38.8901 116.843 24.9244C116.092 20.1824 115.456 16.25 115.166 14.3127C115.158 14.2557 115.162 14.1976 115.176 14.1419C115.191 14.0862 115.216 14.0339 115.251 13.9881C115.286 13.9424 115.33 13.904 115.38 13.8754C115.43 13.8467 115.485 13.8283 115.542 13.8212V13.8212C115.653 13.8042 115.766 13.8309 115.858 13.8956C115.95 13.9603 116.013 14.058 116.034 14.1681C116.323 16.2211 116.93 19.9511 117.711 24.7798C120.949 45.0201 124.072 65.0868 123.494 67.1397C122.944 68.6144 122.048 69.4529 120.92 69.4529Z" fill="#394A8F"></path><g opacity="0.8"><path opacity="0.8" d="M120.92 69.453H120.747C120.086 69.3536 119.481 69.0286 119.033 68.5331C118.585 68.0376 118.322 67.4023 118.289 66.7351C118.289 65.2893 118.289 54.3596 118.289 53.897H119.157C119.157 53.897 119.157 65.2604 119.157 66.6772C119.181 67.1374 119.36 67.5758 119.665 67.922C119.969 68.2681 120.381 68.5019 120.834 68.5856C121.643 68.5856 122.308 68.0652 122.626 66.9086C123.234 64.8556 119.07 38.8903 116.843 24.9245C116.092 20.1825 115.456 16.2502 115.166 14.3129C115.158 14.2559 115.162 14.1978 115.176 14.142C115.191 14.0863 115.216 14.034 115.251 13.9883C115.286 13.9425 115.33 13.9042 115.38 13.8755C115.43 13.8469 115.485 13.8284 115.542 13.8213V13.8213C115.653 13.8044 115.766 13.831 115.858 13.8957C115.95 13.9604 116.013 14.0581 116.034 14.1683C116.323 16.2212 116.93 19.9512 117.711 24.78C120.949 45.0202 124.072 65.0869 123.494 67.1399C122.944 68.6145 122.048 69.453 120.92 69.453Z" fill="#4B6FC7"></path></g><path d="M120.256 36.4035H117.364C117.231 36.4037 117.103 36.3528 117.006 36.2614C116.909 36.17 116.851 36.0449 116.844 35.9119C116.844 35.7739 116.899 35.6415 116.996 35.5439C117.094 35.4463 117.226 35.3915 117.364 35.3915H120.256C120.389 35.3989 120.514 35.457 120.605 35.5538C120.697 35.6506 120.747 35.7788 120.747 35.9119C120.74 36.0401 120.686 36.1611 120.596 36.2518C120.505 36.3425 120.384 36.3965 120.256 36.4035V36.4035Z" fill="#394A8F"></path><path d="M103.398 3.99029L104.729 3.8457C106.228 3.85332 107.706 4.20381 109.049 4.87035C110.392 5.5369 111.565 6.50184 112.478 7.69135L111.148 8.5877C110.406 7.37909 109.318 6.42187 108.025 5.84082C107.277 5.53461 106.487 5.33978 105.683 5.26253L103.398 3.99029Z" fill="#394A8F"></path><path d="M103.398 3.99029L104.729 3.8457C106.241 3.86209 107.729 4.22203 109.082 4.89828C110.434 5.57452 111.615 6.54937 112.535 7.74917L111.176 8.5877C110.426 7.38703 109.34 6.4322 108.054 5.84082C107.296 5.53385 106.497 5.33905 105.683 5.26253C105.683 5.26253 103.688 4.07703 103.398 3.99029Z" fill="#4B6FC7"></path><path d="M106.03 5.46492V6.96847C104.08 7.25263 102.089 7.03365 100.247 6.33234V4.74205L101.982 4.25049C102.219 4.13444 102.473 4.05639 102.734 4.01919C102.964 3.99133 103.197 3.99133 103.428 4.01919H103.775C104.338 4.13731 104.858 4.40729 105.278 4.79987L106.059 5.29141L106.03 5.46492Z" fill="#394A8F"></path><path d="M111.176 8.61657L113.287 11.508L114.732 11.19L112.506 7.72021L111.176 8.61657Z" fill="#394A8F"></path><path d="M118.434 51.5836C118.434 52.3065 118.029 52.9137 117.509 52.9137C116.988 52.9137 116.555 52.3065 116.555 51.5836C116.555 50.8608 116.988 50.2825 117.509 50.2825C118.029 50.2825 118.434 50.8608 118.434 51.5836Z" fill="#4B6FC7"></path><path d="M106.03 5.46492V6.96847C104.08 7.25263 102.089 7.03365 100.247 6.33234V4.74205L101.982 4.25049C102.219 4.13444 102.473 4.05639 102.734 4.01919C102.964 3.99133 103.197 3.99133 103.428 4.01919H103.775C104.338 4.13731 104.858 4.40729 105.278 4.79987L106.059 5.29141L106.03 5.46492Z" fill="#4B6FC7"></path><path d="M105.394 6.41906C105.394 6.76604 104.208 6.91061 102.849 6.73713C101.49 6.56364 100.392 6.12992 100.449 5.81186C100.507 5.4938 101.635 5.32031 102.994 5.4938C104.353 5.66729 105.423 6.07209 105.394 6.41906Z" fill="#394A8F"></path><path opacity="0.5" d="M105.394 6.41906C105.394 6.76604 104.208 6.91061 102.849 6.73713C101.49 6.56364 100.392 6.12992 100.449 5.81186C100.507 5.4938 101.635 5.32031 102.994 5.4938C104.353 5.66729 105.423 6.07209 105.394 6.41906Z" fill="black"></path><path d="M115.282 41.4347H115.051V43.7479H115.282V41.4347Z" fill="#394A8F"></path><path d="M115.282 45.8586H115.051V55.0245H115.282V45.8586Z" fill="#394A8F"></path><path d="M60.6048 70.7542C60.4625 71.3111 60.404 71.8861 60.4313 72.4602C60.4402 72.7381 60.5126 73.0102 60.6429 73.2558C60.7732 73.5014 60.958 73.7139 61.1831 73.877C61.6293 74.0512 62.1248 74.0512 62.571 73.877L63.4963 73.6457C63.6494 73.671 63.8057 73.671 63.9589 73.6457C64.6818 73.2409 64.8263 72.171 64.8842 71.2458C65.1155 67.0821 65.3179 62.9184 65.5492 58.7547C66.146 56.0413 66.3312 53.2536 66.0986 50.4851C65.8935 49.506 65.4683 48.5864 64.8552 47.796C63.9122 47.5515 62.9337 47.4733 61.9638 47.5647C61.7948 48.2484 61.7948 48.9629 61.9638 49.6466C62.3828 52.1001 62.4993 54.5957 62.3108 57.0776C62.0327 61.668 61.4629 66.2361 60.6048 70.7542V70.7542Z" fill="#394A8F"></path><path d="M60.6048 70.7542C60.4625 71.3111 60.404 71.8861 60.4313 72.4602C60.4402 72.7381 60.5126 73.0102 60.6429 73.2558C60.7732 73.5014 60.958 73.7139 61.1831 73.877C61.6293 74.0512 62.1248 74.0512 62.571 73.877L63.4963 73.6457C63.6494 73.671 63.8057 73.671 63.9589 73.6457C64.6818 73.2409 64.8263 72.171 64.8842 71.2458C65.1155 67.0821 65.3179 62.9184 65.5492 58.7547C66.146 56.0413 66.3312 53.2536 66.0986 50.4851C65.8935 49.506 65.4683 48.5864 64.8552 47.796C63.9122 47.5515 62.9337 47.4733 61.9638 47.5647C61.7948 48.2484 61.7948 48.9629 61.9638 49.6466C62.3828 52.1001 62.4993 54.5957 62.3108 57.0776C62.0327 61.668 61.4629 66.2361 60.6048 70.7542V70.7542Z" fill="#394A8F"></path><path opacity="0.2" d="M60.6048 70.7542C60.4625 71.3111 60.404 71.8861 60.4313 72.4602C60.4402 72.7381 60.5126 73.0102 60.6429 73.2558C60.7732 73.5014 60.958 73.7139 61.1831 73.877C61.6293 74.0512 62.1248 74.0512 62.571 73.877L63.4963 73.6457C63.6494 73.671 63.8057 73.671 63.9589 73.6457C64.6818 73.2409 64.8263 72.171 64.8842 71.2458C65.1155 67.0821 65.3179 62.9184 65.5492 58.7547C66.146 56.0413 66.3312 53.2536 66.0986 50.4851C65.8935 49.506 65.4683 48.5864 64.8552 47.796C63.9122 47.5515 62.9337 47.4733 61.9638 47.5647C61.7948 48.2484 61.7948 48.9629 61.9638 49.6466C62.3828 52.1001 62.4993 54.5957 62.3108 57.0776C62.0327 61.668 61.4629 66.2361 60.6048 70.7542V70.7542Z" fill="black"></path><path d="M79.225 47.9695C79.225 48.0682 79.2056 48.1659 79.1678 48.2572C79.13 48.3484 79.0746 48.4312 79.0048 48.5011C78.935 48.5709 78.8521 48.6262 78.7609 48.664C78.6697 48.7018 78.5719 48.7213 78.4732 48.7213H52.2188V47.2177H78.4732C78.6726 47.2177 78.8638 47.2969 79.0048 47.4379C79.1458 47.5789 79.225 47.7701 79.225 47.9695V47.9695Z" fill="#3A304C"></path><path d="M79.2247 47.9694C79.2247 48.0682 79.2052 48.1659 79.1675 48.2571C79.1297 48.3483 79.0743 48.4312 79.0045 48.501C78.9347 48.5708 78.8518 48.6262 78.7606 48.664C78.6694 48.7018 78.5716 48.7212 78.4729 48.7212H60.0254C60.1757 48.6612 60.3045 48.5574 60.3953 48.4234C60.486 48.2894 60.5345 48.1313 60.5345 47.9694C60.5345 47.8076 60.486 47.6495 60.3953 47.5155C60.3045 47.3815 60.1757 47.2777 60.0254 47.2177H78.6175C78.7909 47.2516 78.9468 47.3456 79.0579 47.4831C79.1689 47.6205 79.228 47.7927 79.2247 47.9694V47.9694Z" fill="#4B6FC7"></path><path d="M54.04 48.6923V53.3186C54.4957 53.3139 54.9419 53.1882 55.3331 52.9545C55.7242 52.7208 56.0463 52.3875 56.2665 51.9885V51.8439C56.5537 51.3089 57.0268 50.8976 57.5965 50.6874V50.6874C58.1199 50.4834 58.5652 50.119 58.8688 49.6464L59.4182 48.7212L54.04 48.6923Z" fill="#3A304C"></path><path d="M53.3184 48.6923V53.3186C53.771 53.3179 54.2149 53.1937 54.6022 52.9593C54.9894 52.7249 55.3053 52.3892 55.5159 51.9885V51.8439C55.7941 51.3018 56.2704 50.8877 56.8459 50.6874C57.3618 50.4708 57.8037 50.1092 58.1182 49.6464L58.6676 48.7212L53.3184 48.6923Z" fill="#1A2E35"></path><path d="M53.3184 48.6923V53.3186C53.771 53.3179 54.2149 53.1937 54.6022 52.9593C54.9894 52.7249 55.3053 52.3892 55.5159 51.9885V51.8439C55.7941 51.3018 56.2704 50.8877 56.8459 50.6874C57.3618 50.4708 57.8037 50.1092 58.1182 49.6464L58.6676 48.7212L53.3184 48.6923Z" fill="#4B6FC7"></path><path d="M72.7188 48.6923V53.3186C73.1714 53.3179 73.6153 53.1937 74.0025 52.9593C74.3898 52.7249 74.7057 52.3893 74.9163 51.9886V51.844C75.2035 51.309 75.6766 50.8976 76.2463 50.6874V50.6874C76.7622 50.4708 77.2041 50.1092 77.5186 49.6465L78.068 48.7212L72.7188 48.6923Z" fill="#1A2E35"></path><path d="M72.7188 48.6923V53.3186C73.1714 53.3179 73.6153 53.1937 74.0025 52.9593C74.3898 52.7249 74.7057 52.3893 74.9163 51.9886V51.844C75.2035 51.309 75.6766 50.8976 76.2463 50.6874V50.6874C76.7622 50.4708 77.2041 50.1092 77.5186 49.6465L78.068 48.7212L72.7188 48.6923Z" fill="#4B6FC7"></path><path d="M71.9971 48.6923V53.3186C72.4497 53.3179 72.8936 53.1937 73.2809 52.9593C73.6681 52.7249 73.984 52.3893 74.1946 51.9886V51.844C74.4728 51.3019 74.9491 50.8877 75.5247 50.6874C76.0533 50.4927 76.5013 50.1261 76.7969 49.6465L77.3752 48.6923H71.9971Z" fill="#3A304C"></path><path d="M63.3505 49.9068C63.3505 51.7573 62.5698 66.5905 62.4541 71.2746C62.3532 72.4848 62.4908 73.7029 62.8589 74.8601C63.3216 75.9877 64.3625 76.8552 65.4034 76.566C66.4444 76.2769 67.0805 75.1203 68.0636 75.1492C69.0467 75.1781 69.7117 76.248 70.637 76.3347C71.3092 76.2713 71.9503 76.0209 72.4875 75.6118C73.0668 75.3408 73.6985 75.2003 74.338 75.2003C74.9776 75.2003 75.6093 75.3408 76.1886 75.6118C76.1555 67.315 75.7019 59.0251 74.8296 50.7742C74.8581 49.4342 74.3598 48.1364 73.4417 47.1599C72.7477 46.6683 72.5164 47.1599 71.7068 47.1599H65.4323C64.8251 47.1599 63.3216 47.1599 63.0324 47.1599C62.7687 47.2204 62.5218 47.3389 62.3096 47.5068C62.9538 48.1421 63.3269 49.0023 63.3505 49.9068V49.9068Z" fill="#394A8F"></path><path d="M63.3505 49.9068C63.3505 51.7573 62.5698 66.5905 62.4541 71.2746C62.3532 72.4848 62.4908 73.7029 62.8589 74.8601C63.3216 75.9877 64.3625 76.8552 65.4034 76.566C66.4444 76.2769 67.0805 75.1203 68.0636 75.1492C69.0467 75.1781 69.7117 76.248 70.637 76.3347C71.3092 76.2713 71.9503 76.0209 72.4875 75.6118C73.0668 75.3408 73.6985 75.2003 74.338 75.2003C74.9776 75.2003 75.6093 75.3408 76.1886 75.6118C76.1555 67.315 75.7019 59.0251 74.8296 50.7742C74.8581 49.4342 74.3598 48.1364 73.4417 47.1599C72.7477 46.6683 72.5164 47.1599 71.7068 47.1599H65.4323C64.8251 47.1599 63.3216 47.1599 63.0324 47.1599C62.7687 47.2204 62.5218 47.3389 62.3096 47.5068C62.9538 48.1421 63.3269 49.0023 63.3505 49.9068V49.9068Z" fill="#4B6FC7"></path><path d="M79.2264 37.1264H52.249V38.63H79.2264V37.1264Z" fill="#3A304C"></path><path d="M79.2251 37.1263H59.9102V38.6299H79.2251V37.1263Z" fill="#4B6FC7"></path><path d="M54.041 38.63V43.2274C54.4944 43.2285 54.9398 43.1085 55.3313 42.8798C55.7227 42.651 56.0459 42.3218 56.2674 41.9263V41.7528C56.5796 41.2382 57.0446 40.8339 57.5975 40.5962C58.1294 40.392 58.5774 40.0153 58.8698 39.5263L59.4191 38.63H54.041Z" fill="#1A2E35"></path><path d="M53.3184 38.63V43.2274C53.7681 43.2295 54.2099 43.1097 54.5969 42.8805C54.9839 42.6514 55.3015 42.3216 55.5159 41.9263V41.7528C55.8112 41.2243 56.2815 40.8153 56.8459 40.5962C57.3724 40.3829 57.8177 40.0084 58.1182 39.5264L58.6676 38.63H53.3184Z" fill="#1A2E35"></path><path d="M53.3184 38.63V43.2274C53.7681 43.2295 54.2099 43.1097 54.5969 42.8805C54.9839 42.6514 55.3015 42.3216 55.5159 41.9263V41.7528C55.8112 41.2243 56.2815 40.8153 56.8459 40.5962C57.3724 40.3829 57.8177 40.0084 58.1182 39.5264L58.6676 38.63H53.3184Z" fill="#4B6FC7"></path><path d="M72.7197 38.63V43.2274C73.1694 43.2295 73.6113 43.1097 73.9983 42.8805C74.3852 42.6514 74.7028 42.3216 74.9172 41.9263V41.7528C75.2294 41.2382 75.6944 40.8339 76.2473 40.5962C76.7737 40.3829 77.2191 40.0084 77.5196 39.5264L78.0689 38.63H72.7197Z" fill="#1A2E35"></path><path d="M72.7197 38.63V43.2274C73.1694 43.2295 73.6113 43.1097 73.9983 42.8805C74.3852 42.6514 74.7028 42.3216 74.9172 41.9263V41.7528C75.2294 41.2382 75.6944 40.8339 76.2473 40.5962C76.7737 40.3829 77.2191 40.0084 77.5196 39.5264L78.0689 38.63H72.7197Z" fill="#4B6FC7"></path><path d="M71.9971 38.63V43.2274C72.4468 43.2295 72.8886 43.1096 73.2756 42.8805C73.6626 42.6514 73.9802 42.3216 74.1946 41.9263V41.7528C74.4899 41.2242 74.9603 40.8152 75.5247 40.5962V40.5962C76.0614 40.4003 76.5118 40.0215 76.7969 39.5263L77.3463 38.63H71.9971Z" fill="#3A304C"></path><path d="M58.8987 26.2545H58.5518V27.787H58.8987V26.2545Z" fill="#1A2E35"></path><path d="M60.9228 37.1264H56.5566V29.8689C56.5566 29.5816 56.6137 29.2973 56.7244 29.0323C56.8352 28.7672 56.9976 28.5269 57.202 28.3251C57.4064 28.1234 57.6489 27.9642 57.9154 27.857C58.1818 27.7497 58.4669 27.6964 58.7542 27.7003V27.7003C59.3293 27.7003 59.8809 27.9288 60.2876 28.3354C60.6943 28.7421 60.9228 29.2937 60.9228 29.8689V37.1264Z" fill="#394A8F"></path><path d="M60.9228 37.1264H56.5566V29.8689C56.5566 29.5816 56.6137 29.2973 56.7244 29.0323C56.8352 28.7672 56.9976 28.5269 57.202 28.3251C57.4064 28.1234 57.6489 27.9642 57.9154 27.857C58.1818 27.7497 58.4669 27.6964 58.7542 27.7003V27.7003C59.3293 27.7003 59.8809 27.9288 60.2876 28.3354C60.6943 28.7421 60.9228 29.2937 60.9228 29.8689V37.1264Z" fill="#4B6FC7"></path><path d="M59.7371 27.3533V28.1629H57.7998V27.3533H58.3203V27.0063H59.1877V27.3533H59.7371Z" fill="#394A8F"></path><path d="M56.876 25.792H59.5361L60.9819 25.5317L60.6927 26.0811L59.5361 26.3124H56.876V25.792Z" fill="#394A8F"></path><path d="M56.876 25.792H59.5361L60.9819 25.5317L60.6927 26.0811L59.5361 26.3124H56.876V25.792Z" fill="#4B6FC7"></path><path d="M60.4025 30.4471H57.1641V34.8422H60.4025V30.4471Z" fill="#FAFAFA"></path><path d="M64.6244 35.3336L64.5087 37.1264H62.8028L62.6582 35.3336H64.6244Z" fill="#394A8F"></path><path d="M64.6244 35.3336L64.5087 37.1264H62.8028L62.6582 35.3336H64.6244Z" fill="#4B6FC7"></path><path d="M65.1728 28.163L64.6234 35.3338H62.6572L62.1367 28.163H65.1728Z" fill="#394A8F"></path><path d="M65.1728 28.163L64.6234 35.3338H62.6572L62.1367 28.163H65.1728Z" fill="#4B6FC7"></path><path d="M78.1564 35.5939C78.1564 36.2589 76.6528 36.7794 74.8023 36.7794C72.9518 36.7794 71.5928 36.2589 71.5928 35.5939C71.5928 34.9289 73.0963 34.4084 74.9469 34.4084C76.7974 34.4084 78.1564 34.9578 78.1564 35.5939Z" fill="#394A8F"></path><path d="M78.1564 35.5939C78.1564 36.2589 76.6528 36.7794 74.8023 36.7794C72.9518 36.7794 71.5928 36.2589 71.5928 35.5939C71.5928 34.9289 73.0963 34.4084 74.9469 34.4084C76.7974 34.4084 78.1564 34.9578 78.1564 35.5939Z" fill="#4B6FC7"></path><path d="M70.9858 35.8542H78.4457V36.1723C78.4457 36.41 78.3513 36.638 78.1832 36.8061C78.0151 36.9742 77.7871 37.0687 77.5494 37.0687H71.7665C71.5287 37.0687 71.3008 36.9742 71.1327 36.8061C70.9646 36.638 70.8701 36.41 70.8701 36.1723V35.8542H70.9858Z" fill="#394A8F"></path><path d="M70.9858 35.8542H78.4457V36.1723C78.4457 36.41 78.3513 36.638 78.1832 36.8061C78.0151 36.9742 77.7871 37.0687 77.5494 37.0687H71.7665C71.5287 37.0687 71.3008 36.9742 71.1327 36.8061C70.9646 36.638 70.8701 36.41 70.8701 36.1723V35.8542H70.9858Z" fill="#4B6FC7"></path><path d="M68.6432 25.8208H67.1396V27.3244H68.6432V25.8208Z" fill="#394A8F"></path><path d="M68.6436 25.416H67.1689V25.8208H68.6436V25.416Z" fill="#394A8F"></path><path d="M68.6436 25.416H67.1689V25.8208H68.6436V25.416Z" fill="#4B6FC7"></path><path d="M70.061 37.1264H65.8105V29.8689C65.8105 29.2937 66.039 28.7421 66.4457 28.3354C66.8524 27.9288 67.404 27.7003 67.9791 27.7003V27.7003C68.265 27.6964 68.5487 27.7498 68.8136 27.8574C69.0785 27.965 69.3191 28.1246 69.5212 28.3268C69.7234 28.5289 69.883 28.7695 69.9906 29.0344C70.0982 29.2993 70.1516 29.583 70.1477 29.8689L70.061 37.1264Z" fill="#394A8F"></path><g opacity="0.5"><path opacity="0.5" d="M70.059 37.1263H65.8086V29.8687C65.8086 29.2936 66.0371 28.742 66.4438 28.3353C66.8504 27.9286 67.402 27.7001 67.9772 27.7001V27.7001C68.2631 27.6963 68.5468 27.7497 68.8117 27.8573C69.0765 27.9649 69.3171 28.1245 69.5193 28.3267C69.7214 28.5288 69.881 28.7694 69.9886 29.0343C70.0962 29.2991 70.1497 29.5829 70.1458 29.8687L70.059 37.1263Z" fill="#4B6FC7"></path></g><path d="M69.7709 30.0713H68.4697V35.6229H69.7709V30.0713Z" fill="white"></path><path d="M68.9037 27.3533V27.9316C68.5876 27.7806 68.242 27.7016 67.8917 27.7002C67.5636 27.7055 67.2395 27.7743 66.9375 27.9026V27.3533H68.9037Z" fill="#394A8F"></path><path opacity="0.2" d="M68.9037 27.3533V27.9316C68.5876 27.7806 68.242 27.7016 67.8917 27.7002C67.5636 27.7055 67.2395 27.7743 66.9375 27.9026V27.3533H68.9037Z" fill="black"></path><path d="M99.6112 25.8208C99.6112 25.9943 99.7558 26.1389 99.9004 26.1389C100.045 26.1389 100.103 25.9364 100.103 25.734C100.091 25.6538 100.054 25.5795 99.9966 25.5222C99.9393 25.4649 99.8649 25.4276 99.7847 25.416C99.7847 25.416 99.5823 25.5606 99.6112 25.8208Z" fill="#1A2E35"></path><path d="M99.7559 26.1388C100.065 26.7118 100.454 27.2376 100.912 27.7002C100.796 27.8154 100.655 27.9017 100.499 27.9519C100.343 28.0022 100.178 28.015 100.016 27.9893L99.7559 26.1388Z" fill="#C56750"></path><path d="M98.7432 24.8377C98.8668 24.7059 99.0219 24.6077 99.1938 24.5521C99.3657 24.4964 99.5489 24.4853 99.7263 24.5196V24.6642C99.5781 24.6457 99.4277 24.6622 99.287 24.7124C99.1464 24.7626 99.0196 24.8451 98.9167 24.9533L98.7432 24.8377Z" fill="#1A2E35"></path><path d="M94.1171 27.6134C94.493 29.4061 94.9556 32.6735 93.7412 33.9168C93.7412 33.9168 94.2617 35.7095 97.5869 35.5939C100.912 35.4782 99.2928 33.7433 99.2928 33.7433C97.2977 33.3385 97.2977 31.835 97.6158 30.4471L94.1171 27.6134Z" fill="#C56750"></path><path d="M112.073 104.671C110.396 104.671 109.182 104.44 107.765 104.382H106.493H105.365C105.179 104.398 104.992 104.366 104.823 104.287C104.654 104.209 104.508 104.088 104.4 103.936C104.292 103.784 104.225 103.607 104.207 103.421C104.188 103.235 104.219 103.048 104.295 102.878C104.295 102.618 104.527 102.271 104.671 101.866C105.15 100.432 105.375 98.9249 105.336 97.4133C105.21 92.158 105.568 86.9022 106.406 81.7126C106.743 79.8613 106.532 77.9519 105.799 76.2189C104.456 73.2664 102.9 70.4156 101.144 67.6891C101.662 67.468 102.206 67.3126 102.763 67.2264C106.926 66.5903 106.84 65.1446 108.285 63.6989C110.055 68.3771 111.353 73.2202 112.16 78.1562C112.274 79.6848 112.118 81.2216 111.697 82.6958C110.2 88.7753 109.108 94.9477 108.43 101.172C109.774 102.286 111.313 103.139 112.97 103.688C113.317 103.63 112.97 104.729 112.073 104.671Z" fill="#C56750"></path><path d="M97.7892 79.8622C97.3923 81.3387 96.7469 82.737 95.8808 83.997C92.5019 89.2742 89.4598 94.7596 86.7727 100.42C87.3799 101.23 87.8715 101.953 88.4208 102.618L88.5943 102.82C89.108 103.013 89.6413 103.149 90.1846 103.225C90.5894 103.225 90.1846 104.353 89.2883 104.324H88.3919C87.7608 104.287 87.1426 104.13 86.5703 103.861L84.1704 102.791C83.8812 102.791 83.303 102.791 82.8403 102.531C82.6604 102.481 82.4963 102.385 82.3635 102.254C82.2308 102.122 82.1338 101.959 82.0817 101.78C82.0295 101.6 82.0241 101.41 82.0658 101.228C82.1075 101.046 82.1949 100.877 82.3199 100.739C82.4933 100.536 82.7536 100.276 83.0138 99.9289C83.9261 98.7247 84.6298 97.3759 85.0957 95.9387C86.6656 90.9412 88.6984 86.1011 91.1677 81.4814C92.1103 79.8434 92.5337 77.9581 92.3821 76.0744C92.0665 72.8503 91.5254 69.6522 90.7629 66.5037C91.3204 66.4458 91.8825 66.4458 92.44 66.5037C96.5748 67.2554 96.9507 65.8675 98.8012 64.9423C98.9532 69.9367 98.6142 74.934 97.7892 79.8622V79.8622Z" fill="#C56750"></path><path d="M103.398 35.7963C104.006 42.1962 104.228 48.6269 104.063 55.0534L91.0227 55.892C90.6468 52.509 92.2082 47.2176 89.5769 37.5601C89.4485 36.8216 89.6119 36.0621 90.0327 35.4418C90.4534 34.8215 91.0986 34.3888 91.8323 34.2349V34.2349L93.0756 34.0325C95.0032 33.8398 96.8538 33.7241 98.6272 33.6855C99.4079 33.6855 100.16 33.6856 100.796 33.859C101.374 33.8847 101.93 34.083 102.394 34.4283C102.858 34.7737 103.208 35.2502 103.398 35.7963Z" fill="#C56750"></path><path d="M100.103 55.0824C100.103 55.0824 99.6977 65.3471 99.2351 67.9494C94.175 68.5566 91.6595 67.9494 90.2137 67.053C90.2137 64.6242 88.3921 60.287 91.1101 55.2269C92.5249 55.4518 93.9611 55.51 95.3894 55.4004L100.103 55.0824Z" fill="#394A8F"></path><path opacity="0.2" d="M99.5531 63.7856L96.9219 61.4435C97.3481 63.7197 98.1286 65.9149 99.2351 67.9493V66.2433L99.5531 63.7856Z" fill="black"></path><path d="M100.218 28.7701C100.169 29.3179 99.9852 29.8451 99.6824 30.3043C99.3797 30.7635 98.9677 31.1404 98.4835 31.4013C98.175 31.5937 97.8307 31.7216 97.4715 31.7772C97.0514 31.86 96.6183 31.8484 96.2032 31.7434C95.7882 31.6384 95.4017 31.4426 95.0715 31.17C93.6836 30.1002 93.5391 28.7123 93.0475 26.3124C92.9178 25.8098 92.9178 25.2825 93.0475 24.7799C93.1553 24.3601 93.3449 23.9656 93.6054 23.6192C93.8658 23.2727 94.192 22.981 94.5653 22.7608C94.9387 22.5406 95.3517 22.3961 95.781 22.3357C96.2102 22.2753 96.6471 22.3002 97.0667 22.4089C99.5822 23.0161 100.508 26.5437 100.218 28.7701Z" fill="#C56750"></path><path opacity="0.2" d="M98.4544 31.3435C98.14 31.5235 97.7981 31.6505 97.4424 31.7194L97.587 30.3893C97.587 30.3893 97.9918 31.3435 98.4544 31.3435Z" fill="black"></path><path opacity="0.2" d="M103.891 37.965L102.561 39.4685C102.426 39.6151 102.325 39.7895 102.265 39.9793C102.205 40.1692 102.188 40.3699 102.214 40.5673L102.416 42.0998C102.998 41.5967 103.44 40.9513 103.699 40.2267C103.957 39.5021 104.023 38.7228 103.891 37.965Z" fill="black"></path><path d="M97.6149 25.5606C97.9081 26.046 98.0954 26.5879 98.1642 27.1509C98.1642 25.9075 98.0197 25.5317 98.1642 24.2594C98.3088 22.9872 98.598 23.3341 98.7715 23.4498C98.7597 23.037 98.6349 22.6353 98.4105 22.2886C98.1862 21.9419 97.871 21.6634 97.4992 21.4836C96.4598 21.1863 95.358 21.1863 94.3186 21.4836C92.9844 21.7638 91.7654 22.4388 90.8199 23.4209C90.3464 23.9151 90.0283 24.5375 89.9049 25.2107C89.7816 25.884 89.8584 26.5787 90.126 27.2087C90.4151 28.0472 90.9356 28.2207 91.1958 29.0592C91.456 29.8977 91.1958 31.3435 90.3573 31.6037C90.7571 31.7511 91.1959 31.7537 91.5974 31.6111C91.9988 31.4685 92.3376 31.1896 92.5548 30.823C92.5938 31.1119 92.5554 31.4059 92.4437 31.6752C92.3319 31.9444 92.1508 32.1791 91.9187 32.3555V32.3555C92.9885 32.3555 94.0005 31.0254 94.0005 31.0254C94.0005 31.0254 94.3764 31.7772 93.3066 32.7314C94.1022 32.5551 94.8381 32.1744 95.4415 31.6267C96.045 31.0791 96.4951 30.3835 96.7474 29.6086C97.0512 28.2711 97.0114 26.8785 96.6318 25.5606V25.5606C96.6881 25.4829 96.762 25.4197 96.8474 25.3761C96.9329 25.3326 97.0274 25.3098 97.1233 25.3098C97.2192 25.3098 97.3138 25.3326 97.3992 25.3761C97.4847 25.4197 97.5586 25.4829 97.6149 25.5606V25.5606Z" fill="#3A304C"></path><path d="M92.96 20.0379C92.4892 19.7982 91.9537 19.7165 91.4329 19.8051C90.9121 19.8936 90.4337 20.1476 90.0685 20.5295C89.7285 20.9256 89.5252 21.4208 89.4887 21.9417C89.4523 22.4625 89.5846 22.9812 89.8661 23.4209C89.3536 23.6111 88.9318 23.9878 88.6852 24.4757C88.4385 24.9636 88.3853 25.5266 88.5361 26.0521C88.2611 26.1874 88.021 26.3843 87.8344 26.6274C87.6478 26.8705 87.5197 27.1533 87.46 27.4539C87.4004 27.7544 87.4108 28.0647 87.4904 28.3607C87.57 28.6566 87.7168 28.9302 87.9192 29.1602C88.1217 29.3903 88.3744 29.5706 88.6578 29.6873C88.9412 29.8039 89.2477 29.8536 89.5534 29.8327C89.8591 29.8117 90.1559 29.7206 90.4208 29.5664C90.6856 29.4123 90.9114 29.1991 91.0806 28.9436C91.1333 29.3395 91.3281 29.7027 91.6286 29.9658C91.929 30.2289 92.3148 30.3739 92.7142 30.3739C93.1136 30.3739 93.4994 30.2289 93.7999 29.9658C94.1004 29.7027 94.2951 29.3395 94.3479 28.9436C94.462 29.1333 94.6198 29.293 94.8082 29.4093C94.9966 29.5256 95.2101 29.5951 95.4308 29.6121C95.6516 29.6291 95.8732 29.593 96.0771 29.5069C96.2811 29.4208 96.4615 29.2871 96.6032 29.1171V29.1171C96.8693 29.089 97.1159 28.9648 97.2969 28.7679C97.4778 28.5709 97.5808 28.3147 97.5863 28.0472C97.5943 27.8611 97.5593 27.6756 97.4841 27.5051C97.4089 27.3346 97.2955 27.1837 97.1526 27.0641C97.0368 27.0067 96.9394 26.9181 96.8713 26.8082C96.8031 26.6984 96.7671 26.5717 96.7671 26.4425C96.7671 26.3132 96.8031 26.1866 96.8713 26.0767C96.9394 25.9669 97.0368 25.8782 97.1526 25.8208C97.8466 25.3871 97.6153 26.2256 98.3092 26.2835C98.4561 26.2896 98.6022 26.2584 98.7337 26.1927C98.8652 26.1269 98.9778 26.0288 99.061 25.9076C99.1549 25.7606 99.2008 25.5881 99.192 25.4139C99.1833 25.2397 99.1205 25.0725 99.0123 24.9357C98.9041 24.7989 98.756 24.6992 98.5885 24.6506C98.421 24.6019 98.2425 24.6067 98.0779 24.6642C98.4119 24.5971 98.7123 24.4164 98.9281 24.1529C99.144 23.8893 99.2619 23.5592 99.2619 23.2185C99.2619 22.8779 99.144 22.5477 98.9281 22.2841C98.7123 22.0206 98.4119 21.8399 98.0779 21.7728C98.2789 21.5203 98.4219 21.2265 98.4966 20.9125C98.5713 20.5985 98.5758 20.2718 98.51 19.9558C98.4442 19.6398 98.3095 19.3422 98.1156 19.0841C97.9218 18.826 97.6734 18.6138 97.3882 18.4626C97.1031 18.3114 96.7881 18.2249 96.4657 18.2091C96.1433 18.1934 95.8213 18.2489 95.5228 18.3717C95.2243 18.4945 94.9565 18.6815 94.7384 18.9195C94.5204 19.1575 94.3574 19.4406 94.2612 19.7487C94.2012 19.5689 94.0756 19.4183 93.9094 19.3272C93.7432 19.236 93.5487 19.211 93.3648 19.2572C93.2741 19.2834 93.1896 19.3278 93.1167 19.3877C93.0437 19.4476 92.9837 19.5218 92.9404 19.6057C92.8971 19.6896 92.8714 19.7815 92.8648 19.8757C92.8582 19.9699 92.8709 20.0644 92.9022 20.1535L92.96 20.0379Z" fill="#394A8F"></path><path d="M92.96 20.0379C92.4892 19.7982 91.9537 19.7165 91.4329 19.8051C90.9121 19.8936 90.4337 20.1476 90.0685 20.5295C89.7285 20.9256 89.5252 21.4208 89.4887 21.9417C89.4523 22.4625 89.5846 22.9812 89.8661 23.4209C89.3536 23.6111 88.9318 23.9878 88.6852 24.4757C88.4385 24.9636 88.3853 25.5266 88.5361 26.0521C88.2611 26.1874 88.021 26.3843 87.8344 26.6274C87.6478 26.8705 87.5197 27.1533 87.46 27.4539C87.4004 27.7544 87.4108 28.0647 87.4904 28.3607C87.57 28.6566 87.7168 28.9302 87.9192 29.1602C88.1217 29.3903 88.3744 29.5706 88.6578 29.6873C88.9412 29.8039 89.2477 29.8536 89.5534 29.8327C89.8591 29.8117 90.1559 29.7206 90.4208 29.5664C90.6856 29.4123 90.9114 29.1991 91.0806 28.9436C91.1333 29.3395 91.3281 29.7027 91.6286 29.9658C91.929 30.2289 92.3148 30.3739 92.7142 30.3739C93.1136 30.3739 93.4994 30.2289 93.7999 29.9658C94.1004 29.7027 94.2951 29.3395 94.3479 28.9436C94.462 29.1333 94.6198 29.293 94.8082 29.4093C94.9966 29.5256 95.2101 29.5951 95.4308 29.6121C95.6516 29.6291 95.8732 29.593 96.0771 29.5069C96.2811 29.4208 96.4615 29.2871 96.6032 29.1171V29.1171C96.8693 29.089 97.1159 28.9648 97.2969 28.7679C97.4778 28.5709 97.5808 28.3147 97.5863 28.0472C97.5943 27.8611 97.5593 27.6756 97.4841 27.5051C97.4089 27.3346 97.2955 27.1837 97.1526 27.0641C97.0368 27.0067 96.9394 26.9181 96.8713 26.8082C96.8031 26.6984 96.7671 26.5717 96.7671 26.4425C96.7671 26.3132 96.8031 26.1866 96.8713 26.0767C96.9394 25.9669 97.0368 25.8782 97.1526 25.8208C97.8466 25.3871 97.6153 26.2256 98.3092 26.2835C98.4561 26.2896 98.6022 26.2584 98.7337 26.1927C98.8652 26.1269 98.9778 26.0288 99.061 25.9076C99.1549 25.7606 99.2008 25.5881 99.192 25.4139C99.1833 25.2397 99.1205 25.0725 99.0123 24.9357C98.9041 24.7989 98.756 24.6992 98.5885 24.6506C98.421 24.6019 98.2425 24.6067 98.0779 24.6642C98.4119 24.5971 98.7123 24.4164 98.9281 24.1529C99.144 23.8893 99.2619 23.5592 99.2619 23.2185C99.2619 22.8779 99.144 22.5477 98.9281 22.2841C98.7123 22.0206 98.4119 21.8399 98.0779 21.7728C98.2789 21.5203 98.4219 21.2265 98.4966 20.9125C98.5713 20.5985 98.5758 20.2718 98.51 19.9558C98.4442 19.6398 98.3095 19.3422 98.1156 19.0841C97.9218 18.826 97.6734 18.6138 97.3882 18.4626C97.1031 18.3114 96.7881 18.2249 96.4657 18.2091C96.1433 18.1934 95.8213 18.2489 95.5228 18.3717C95.2243 18.4945 94.9565 18.6815 94.7384 18.9195C94.5204 19.1575 94.3574 19.4406 94.2612 19.7487C94.2012 19.5689 94.0756 19.4183 93.9094 19.3272C93.7432 19.236 93.5487 19.211 93.3648 19.2572C93.2741 19.2834 93.1896 19.3278 93.1167 19.3877C93.0437 19.4476 92.9837 19.5218 92.9404 19.6057C92.8971 19.6896 92.8714 19.7815 92.8648 19.8757C92.8582 19.9699 92.8709 20.0644 92.9022 20.1535L92.96 20.0379Z" fill="#9AE6FF"></path><path d="M96.3732 26.2834C96.5438 26.8552 96.8872 27.3602 97.3563 27.7291C97.9924 28.1917 98.4839 27.7291 98.4261 27.0062C98.3683 26.2834 97.9924 25.3292 97.2984 25.1557C96.6045 24.9822 96.1708 25.5605 96.3732 26.2834Z" fill="#C56750"></path><path d="M104.267 53.5787L104.556 54.7931L90.8213 55.7184L90.8502 54.4462L104.267 53.5787Z" fill="#4B6FC7"></path><path d="M109.181 63.6122C109.181 65.6651 103.832 68.0361 100.333 67.7469C100.016 66.9068 99.6287 66.0944 99.1767 65.3181V65.3181L98.5695 64.6242C97.9446 63.8891 97.3926 63.095 96.9213 62.2532V62.2532C95.7154 60.1891 95.1423 57.8163 95.2732 55.4293C95.2732 55.4293 104.439 54.7932 104.439 54.7932C105.068 56.2743 105.772 57.722 106.55 59.1304C107.36 60.8075 109.181 63.323 109.181 63.6122Z" fill="#394A8F"></path><path d="M95.9968 19.6042C96.2859 19.8067 97.6449 19.6042 98.1654 20.6163L97.2401 23.3342L94.3486 21.5704L95.9968 19.6042Z" fill="#C56750"></path><path d="M97.2686 23.3341L97.789 20.1824L99.8998 21.5992L99.4372 23.4787L97.2686 23.3341Z" fill="#C56750"></path><path d="M98.6855 22.9873L107.649 29.0593C107.649 29.0593 111.957 30.2159 111.581 28.0762C111.206 25.9366 99.4373 21.368 99.4373 21.368L99.1482 22.2644L98.6855 22.9873Z" fill="#C56750"></path><path d="M104.67 31.4881C106.434 30.0135 106.203 29.6086 107.967 28.134C108.4 27.7204 108.911 27.3962 109.47 27.1798C109.745 27.0662 110.045 27.0277 110.34 27.0683C110.635 27.109 110.913 27.2273 111.147 27.4111C111.351 27.6512 111.486 27.9422 111.537 28.2529C111.587 28.5636 111.553 28.8824 111.436 29.1749C110.967 30.4757 110.194 31.6456 109.181 32.5869C105.711 35.8542 102.155 40.0179 102.155 40.0179C101.345 39.8444 100.796 35.7385 100.796 34.8133C100.796 33.888 104.063 32.0086 104.67 31.4881Z" fill="#C56750"></path><path d="M89.2587 22.6691L82.059 30.7652C82.059 30.7652 78.1844 32.9627 78.011 30.7652C77.8375 28.5677 88.1311 21.2523 88.1311 21.2523L88.6226 22.0619L89.2587 22.6691Z" fill="#C56750"></path><path d="M88.1309 21.3679C88.1309 21.3679 88.1309 22.2354 88.5357 22.38C88.7965 22.4626 89.0411 22.5898 89.2585 22.7558L91.456 21.9173C91.2151 21.1902 91.0979 20.4279 91.1091 19.662C91.2536 18.9969 88.1309 21.3679 88.1309 21.3679Z" fill="#C56750"></path><path d="M91.0228 19.5463H92.671C92.671 19.5463 93.7408 21.0787 93.5673 21.1366L91.4565 21.9462C91.4565 21.9462 90.5313 20.327 91.0228 19.5463Z" fill="#C56750"></path><path d="M85.5579 32.5C83.476 31.488 83.5917 31.0543 81.5387 30.0423C81.0098 29.7777 80.4447 29.5926 79.8617 29.4929C79.5654 29.4484 79.2625 29.4871 78.9869 29.6045C78.7112 29.7219 78.4735 29.9135 78.3003 30.1579C78.1298 30.4205 78.0391 30.7268 78.0391 31.0398C78.0391 31.3529 78.1298 31.6592 78.3003 31.9217C78.6927 32.4085 79.1614 32.8284 79.6882 33.1651C80.9315 34.0036 89.924 39.1793 89.924 39.1793C90.9238 37.8888 91.4632 36.3011 91.4564 34.6686C91.3697 33.7723 86.2807 32.847 85.5579 32.5Z" fill="#C56750"></path><path d="M90.8211 55.198C90.8059 55.1717 90.7979 55.1417 90.7979 55.1113C90.7979 55.0808 90.8059 55.0509 90.8211 55.0246L104.411 54.1571C104.426 54.1835 104.434 54.2134 104.434 54.2438C104.434 54.2743 104.426 54.3042 104.411 54.3306L90.85 55.198H90.8211Z" fill="#394A8F"></path><path d="M103.948 30.9387C103.782 30.6366 103.507 30.4089 103.18 30.3015C102.852 30.1941 102.496 30.2152 102.184 30.3604C101.874 30.5266 101.641 30.8061 101.534 31.1403C101.426 31.4745 101.452 31.8374 101.605 32.1531C101.512 32.1054 101.408 32.0839 101.304 32.0907C101.2 32.0975 101.099 32.1324 101.013 32.1917C100.927 32.251 100.859 32.3325 100.816 32.4275C100.772 32.5225 100.755 32.6276 100.767 32.7314C100.668 32.6535 100.555 32.5959 100.434 32.5618C100.313 32.5276 100.187 32.5177 100.062 32.5324C99.9368 32.5472 99.8161 32.5864 99.7064 32.6478C99.5967 32.7092 99.5002 32.7917 99.4224 32.8904C99.3445 32.9891 99.2869 33.1022 99.2528 33.2232C99.2186 33.3442 99.2087 33.4708 99.2234 33.5956C99.2382 33.7205 99.2774 33.8412 99.3388 33.9509C99.4003 34.0606 99.4827 34.1571 99.5814 34.2349C99.5221 34.3298 99.484 34.4364 99.4695 34.5473C99.455 34.6583 99.4645 34.771 99.4975 34.878C99.5304 34.9849 99.5859 35.0835 99.6602 35.1672C99.7346 35.2508 99.826 35.3174 99.9284 35.3626C100.033 35.3991 100.143 35.4145 100.254 35.408C100.364 35.4016 100.472 35.3733 100.572 35.325C100.671 35.2766 100.76 35.209 100.833 35.1262C100.906 35.0433 100.962 34.9468 100.998 34.8421C101.224 34.9428 101.469 34.994 101.717 34.9921C101.964 34.9902 102.209 34.9354 102.433 34.8313C102.658 34.7273 102.858 34.5763 103.019 34.3887C103.18 34.201 103.3 33.981 103.369 33.7434C103.596 33.8044 103.833 33.8136 104.063 33.7703C104.294 33.7271 104.511 33.6325 104.7 33.4937C104.889 33.3548 105.044 33.1752 105.154 32.9681C105.264 32.7611 105.326 32.5319 105.335 32.2977C105.335 31.835 106.058 31.6905 105.335 31.0833C104.901 30.8835 104.413 30.8326 103.948 30.9387V30.9387Z" fill="#394A8F"></path><path d="M103.948 30.9387C103.782 30.6366 103.507 30.4089 103.18 30.3015C102.852 30.1941 102.496 30.2152 102.184 30.3604C101.874 30.5266 101.641 30.8061 101.534 31.1403C101.426 31.4745 101.452 31.8374 101.605 32.1531C101.512 32.1054 101.408 32.0839 101.304 32.0907C101.2 32.0975 101.099 32.1324 101.013 32.1917C100.927 32.251 100.859 32.3325 100.816 32.4275C100.772 32.5225 100.755 32.6276 100.767 32.7314C100.668 32.6535 100.555 32.5959 100.434 32.5618C100.313 32.5276 100.187 32.5177 100.062 32.5324C99.9368 32.5472 99.8161 32.5864 99.7064 32.6478C99.5967 32.7092 99.5002 32.7917 99.4224 32.8904C99.3445 32.9891 99.2869 33.1022 99.2528 33.2232C99.2186 33.3442 99.2087 33.4708 99.2234 33.5956C99.2382 33.7205 99.2774 33.8412 99.3388 33.9509C99.4003 34.0606 99.4827 34.1571 99.5814 34.2349C99.5221 34.3298 99.484 34.4364 99.4695 34.5473C99.455 34.6583 99.4645 34.771 99.4975 34.878C99.5304 34.9849 99.5859 35.0835 99.6602 35.1672C99.7346 35.2508 99.826 35.3174 99.9284 35.3626C100.033 35.3991 100.143 35.4145 100.254 35.408C100.364 35.4016 100.472 35.3733 100.572 35.325C100.671 35.2766 100.76 35.209 100.833 35.1262C100.906 35.0433 100.962 34.9468 100.998 34.8421C101.224 34.9428 101.469 34.994 101.717 34.9921C101.964 34.9902 102.209 34.9354 102.433 34.8313C102.658 34.7273 102.858 34.5763 103.019 34.3887C103.18 34.201 103.3 33.981 103.369 33.7434C103.596 33.8044 103.833 33.8136 104.063 33.7703C104.294 33.7271 104.511 33.6325 104.7 33.4937C104.889 33.3548 105.044 33.1752 105.154 32.9681C105.264 32.7611 105.326 32.5319 105.335 32.2977C105.335 31.835 106.058 31.6905 105.335 31.0833C104.901 30.8835 104.413 30.8326 103.948 30.9387V30.9387Z" fill="#9AE6FF"></path><path d="M92.8152 35.7385C92.6888 35.6912 92.5506 35.6853 92.4207 35.7217C92.2907 35.7581 92.1757 35.8348 92.0923 35.9409C92.0148 36.0454 91.973 36.1722 91.973 36.3023C91.973 36.4324 92.0148 36.5592 92.0923 36.6637C91.8775 36.698 91.6768 36.7922 91.5132 36.9354C91.3495 37.0786 91.2295 37.2651 91.167 37.4734C91.1065 37.6861 91.1099 37.9118 91.1768 38.1226C91.2436 38.3334 91.3709 38.5199 91.5429 38.6588C91.4449 38.8496 91.3906 39.0597 91.3838 39.2741C91.3771 39.4884 91.4181 39.7015 91.5039 39.898C91.5897 40.0945 91.7181 40.2695 91.8799 40.4103C92.0417 40.551 92.2328 40.654 92.4393 40.7118C92.3535 40.8402 92.3077 40.9911 92.3077 41.1455C92.3077 41.2999 92.3535 41.4508 92.4393 41.5792C92.5026 41.7155 92.6053 41.8296 92.7342 41.9069C92.863 41.9842 93.0121 42.0212 93.1621 42.013C93.3165 42.3872 93.5826 42.7047 93.9242 42.9221C94.2658 43.1394 94.6661 43.246 95.0705 43.2274C95.4708 43.1965 95.8511 43.0401 96.1574 42.7805C96.4637 42.521 96.6803 42.1714 96.7765 41.7816C96.603 42.0129 97.0078 42.331 97.268 42.1864C97.393 42.103 97.4901 41.984 97.5468 41.8449C97.6035 41.7057 97.6171 41.5528 97.5861 41.4057C97.5554 41.0386 97.4264 40.6864 97.2127 40.3863C96.999 40.0861 96.7085 39.849 96.3716 39.6998L95.7644 39.3239C95.4106 39.133 95.1119 38.8541 94.897 38.5143C94.7235 38.1384 94.897 37.6179 95.1572 37.4734C95.2443 37.528 95.345 37.5571 95.4479 37.5573C95.5507 37.5576 95.6515 37.529 95.7389 37.4747C95.8262 37.4205 95.8966 37.3428 95.942 37.2506C95.9875 37.1583 96.0061 37.0552 95.9958 36.9529C95.969 36.8559 95.9161 36.7681 95.8428 36.6991C95.7695 36.6301 95.6786 36.5825 95.5802 36.5617C95.4817 36.5408 95.3794 36.5473 95.2844 36.5806C95.1895 36.6139 95.1054 36.6727 95.0416 36.7505C95.0792 36.6795 95.1009 36.601 95.1049 36.5207C95.109 36.4404 95.0953 36.3603 95.065 36.2858C95.0347 36.2113 94.9884 36.1445 94.9294 36.0899C94.8704 36.0353 94.8001 35.9943 94.7235 35.9698C94.5929 35.9101 94.4441 35.9039 94.309 35.9525C94.1739 36.0012 94.0632 36.1008 94.0007 36.23C93.987 36.106 93.9402 35.988 93.8652 35.8883C93.7902 35.7887 93.6897 35.7111 93.5742 35.6637C93.4588 35.6164 93.3328 35.601 93.2094 35.6193C93.086 35.6375 92.9698 35.6887 92.873 35.7674L92.8152 35.7385Z" fill="#394A8F"></path><path d="M92.8152 35.7385C92.6888 35.6912 92.5506 35.6853 92.4207 35.7217C92.2907 35.7581 92.1757 35.8348 92.0923 35.9409C92.0148 36.0454 91.973 36.1722 91.973 36.3023C91.973 36.4324 92.0148 36.5592 92.0923 36.6637C91.8775 36.698 91.6768 36.7922 91.5132 36.9354C91.3495 37.0786 91.2295 37.2651 91.167 37.4734C91.1065 37.6861 91.1099 37.9118 91.1768 38.1226C91.2436 38.3334 91.3709 38.5199 91.5429 38.6588C91.4449 38.8496 91.3906 39.0597 91.3838 39.2741C91.3771 39.4884 91.4181 39.7015 91.5039 39.898C91.5897 40.0945 91.7181 40.2695 91.8799 40.4103C92.0417 40.551 92.2328 40.654 92.4393 40.7118C92.3535 40.8402 92.3077 40.9911 92.3077 41.1455C92.3077 41.2999 92.3535 41.4508 92.4393 41.5792C92.5026 41.7155 92.6053 41.8296 92.7342 41.9069C92.863 41.9842 93.0121 42.0212 93.1621 42.013C93.3165 42.3872 93.5826 42.7047 93.9242 42.9221C94.2658 43.1394 94.6661 43.246 95.0705 43.2274C95.4708 43.1965 95.8511 43.0401 96.1574 42.7805C96.4637 42.521 96.6803 42.1714 96.7765 41.7816C96.603 42.0129 97.0078 42.331 97.268 42.1864C97.393 42.103 97.4901 41.984 97.5468 41.8449C97.6035 41.7057 97.6171 41.5528 97.5861 41.4057C97.5554 41.0386 97.4264 40.6864 97.2127 40.3863C96.999 40.0861 96.7085 39.849 96.3716 39.6998L95.7644 39.3239C95.4106 39.133 95.1119 38.8541 94.897 38.5143C94.7235 38.1384 94.897 37.6179 95.1572 37.4734C95.2443 37.528 95.345 37.5571 95.4479 37.5573C95.5507 37.5576 95.6515 37.529 95.7389 37.4747C95.8262 37.4205 95.8966 37.3428 95.942 37.2506C95.9875 37.1583 96.0061 37.0552 95.9958 36.9529C95.969 36.8559 95.9161 36.7681 95.8428 36.6991C95.7695 36.6301 95.6786 36.5825 95.5802 36.5617C95.4817 36.5408 95.3794 36.5473 95.2844 36.5806C95.1895 36.6139 95.1054 36.6727 95.0416 36.7505C95.0792 36.6795 95.1009 36.601 95.1049 36.5207C95.109 36.4404 95.0953 36.3603 95.065 36.2858C95.0347 36.2113 94.9884 36.1445 94.9294 36.0899C94.8704 36.0353 94.8001 35.9943 94.7235 35.9698C94.5929 35.9101 94.4441 35.9039 94.309 35.9525C94.1739 36.0012 94.0632 36.1008 94.0007 36.23C93.987 36.106 93.9402 35.988 93.8652 35.8883C93.7902 35.7887 93.6897 35.7111 93.5742 35.6637C93.4588 35.6164 93.3328 35.601 93.2094 35.6193C93.086 35.6375 92.9698 35.6887 92.873 35.7674L92.8152 35.7385Z" fill="#9AE6FF"></path><path d="M86.2525 24.1148C86.2525 24.3172 86.0212 24.4907 85.7899 24.5196C85.5586 24.5485 85.3562 24.5196 85.1248 24.5196C84.8935 24.5196 84.6622 24.7509 84.6911 24.9822C84.5063 24.904 84.3019 24.8842 84.1055 24.9256C83.909 24.9669 83.73 25.0674 83.5924 25.2135C83.4534 25.3622 83.3625 25.5494 83.3316 25.7506C83.3006 25.9518 83.331 26.1576 83.4189 26.3412C83.3066 26.3294 83.1934 26.3508 83.0931 26.4026C82.9929 26.4544 82.91 26.5345 82.8546 26.6328C82.7993 26.7312 82.774 26.8436 82.7818 26.9562C82.7895 27.0688 82.8301 27.1766 82.8984 27.2665C82.6804 27.2798 82.4747 27.3724 82.3201 27.5267C82.1755 27.7002 82.3201 28.0182 82.3201 28.0472C82.414 28.0781 82.5154 28.0781 82.6093 28.0472L83.8526 27.1508C84.3491 26.8413 84.7811 26.4388 85.1248 25.9653L86.7151 24.3172C86.7151 24.3172 86.9465 24.0569 86.8886 23.9124C86.8346 23.8594 86.7619 23.8297 86.6862 23.8297C86.6105 23.8297 86.5379 23.8594 86.4838 23.9124C86.365 24.0121 86.2752 24.1419 86.2236 24.2883V24.0859L86.2525 24.1148Z" fill="#394A8F"></path><g opacity="0.8"><path opacity="0.8" d="M86.2525 24.1148C86.2525 24.3172 86.0212 24.4907 85.7899 24.5196C85.5586 24.5485 85.3562 24.5196 85.1248 24.5196C84.8935 24.5196 84.6622 24.7509 84.6911 24.9823C84.5063 24.904 84.3019 24.8842 84.1055 24.9256C83.909 24.967 83.73 25.0674 83.5924 25.2136C83.4534 25.3623 83.3625 25.5495 83.3316 25.7506C83.3006 25.9518 83.331 26.1576 83.4189 26.3412C83.3066 26.3295 83.1934 26.3508 83.0931 26.4027C82.9929 26.4545 82.91 26.5345 82.8546 26.6329C82.7993 26.7312 82.774 26.8436 82.7818 26.9562C82.7895 27.0688 82.8301 27.1767 82.8984 27.2665C82.6804 27.2799 82.4747 27.3724 82.3201 27.5267C82.1755 27.7002 82.3201 28.0183 82.3201 28.0472C82.414 28.0781 82.5154 28.0781 82.6093 28.0472L83.8526 27.1508C84.3491 26.8414 84.7811 26.4388 85.1248 25.9653L86.7151 24.3172C86.7151 24.3172 86.9465 24.057 86.8886 23.9124C86.8346 23.8594 86.7619 23.8297 86.6862 23.8297C86.6105 23.8297 86.5379 23.8594 86.4838 23.9124C86.365 24.0122 86.2752 24.142 86.2236 24.2883V24.0859L86.2525 24.1148Z" fill="#9AE6FF"></path></g><path d="M99.6392 46.5237C99.4322 46.5658 99.2487 46.6845 99.1254 46.856C99.0021 47.0275 98.9481 47.2393 98.9742 47.449C99.0222 47.657 99.1347 47.8446 99.2957 47.9848C99.4567 48.125 99.6579 48.2107 99.8705 48.2296C100.079 48.2376 100.287 48.1974 100.477 48.1122C100.668 48.0269 100.836 47.8989 100.969 47.7381C101.138 47.5407 101.242 47.2964 101.268 47.0379C101.294 46.7795 101.24 46.5193 101.114 46.2924C101.04 46.191 100.946 46.1058 100.838 46.0418C100.73 45.9778 100.61 45.9364 100.486 45.9202C100.362 45.904 100.235 45.9132 100.115 45.9474C99.9938 45.9815 99.8813 46.0399 99.7838 46.1189L99.6392 46.5237Z" fill="#394A8F"></path><g opacity="0.8"><path opacity="0.8" d="M99.6402 46.5237C99.4332 46.5658 99.2497 46.6845 99.1264 46.856C99.0031 47.0276 98.9491 47.2393 98.9752 47.449C99.0231 47.657 99.1356 47.8446 99.2966 47.9848C99.4576 48.125 99.6589 48.2107 99.8715 48.2297C100.08 48.2376 100.288 48.1974 100.478 48.1122C100.669 48.027 100.837 47.8989 100.97 47.7381C101.139 47.5407 101.243 47.2964 101.269 47.0379C101.295 46.7795 101.241 46.5193 101.115 46.2924C101.041 46.191 100.947 46.1058 100.839 46.0418C100.731 45.9778 100.611 45.9365 100.487 45.9202C100.363 45.904 100.236 45.9133 100.115 45.9474C99.9948 45.9816 99.8822 46.0399 99.7848 46.1189L99.6402 46.5237Z" fill="#9AE6FF"></path></g><path d="M93.6823 15.7296C93.6823 16.1055 93.451 16.4525 93.3643 16.8284H93.6534C93.6534 16.4814 93.8269 16.1055 93.9426 15.7585C93.855 15.778 93.7635 15.7678 93.6823 15.7296V15.7296Z" fill="#9AE6FF"></path><path d="M99.1479 7.89368C96.9962 9.56269 95.3047 11.7518 94.2324 14.2549H94.4926C95.5741 11.87 97.2339 9.79277 99.3214 8.21174L99.1479 7.89368Z" fill="#9AE6FF"></path><path d="M100.884 9.13704L101.317 8.38525H101.057C100.905 8.62627 100.77 8.87747 100.652 9.13704H100.884Z" fill="#9AE6FF"></path><path d="M98.4249 15.556C98.4249 16.1054 98.2225 16.6548 98.1357 17.2041H98.4249C98.4249 16.6259 98.5984 16.0475 98.714 15.4982C98.6258 15.5466 98.5249 15.5668 98.4249 15.556V15.556Z" fill="#9AE6FF"></path><path d="M98.9741 14.3705C99.3135 12.9857 99.7681 11.6316 100.333 10.3225C100.239 10.3498 100.138 10.3498 100.044 10.3225C99.4972 11.6258 99.0525 12.9695 98.7139 14.3416C98.7568 14.3277 98.8022 14.3231 98.8471 14.3281C98.892 14.3331 98.9353 14.3475 98.9741 14.3705V14.3705Z" fill="#9AE6FF"></path><path d="M103.399 10.0914C103.399 9.57089 103.399 9.07933 103.399 8.6167H103.109C103.109 9.07933 103.109 9.59981 103.109 10.1203C103.2 10.0798 103.302 10.0697 103.399 10.0914Z" fill="#9AE6FF"></path><path d="M103.399 11.3635C103.316 11.3973 103.222 11.3973 103.139 11.3635C103.139 13.2719 102.879 15.3827 102.705 17.6669H102.994C103.168 15.4116 103.312 13.3297 103.428 11.4503L103.399 11.3635Z" fill="#9AE6FF"></path><path d="M107.447 15.0357C107.241 14.1152 106.98 13.2076 106.666 12.3177H106.406C106.701 13.1817 106.951 14.0599 107.158 14.949L107.447 15.0357Z" fill="#9AE6FF"></path><path d="M107.477 16.3368C107.477 16.8862 107.65 17.4355 107.708 17.9849H107.997C107.997 17.4355 107.852 16.8862 107.766 16.3657L107.477 16.3368Z" fill="#9AE6FF"></path><path d="M106.29 11.1032C105.975 10.3231 105.618 9.56057 105.22 8.81897L104.96 8.96355C105.348 9.68588 105.695 10.4292 106.001 11.19C106.091 11.1438 106.189 11.1144 106.29 11.1032V11.1032Z" fill="#9AE6FF"></path><path d="M87.1194 67.1398H87.3507C88.1603 62.2532 89.0277 57.1353 89.9241 52.0175H89.6349C88.7386 57.0775 87.9 62.1954 87.0615 67.1398H87.1194Z" fill="#9AE6FF"></path><path d="M85.3268 77.8381H85.5581C86.0496 74.9467 86.599 71.6793 87.1484 68.3541H86.8882C86.3388 71.6504 85.8183 74.831 85.2979 77.8381H85.3268Z" fill="#9AE6FF"></path><path d="M82.7249 94.6665H82.4936C82.0888 97.0953 81.8285 98.6856 81.7129 99.0904H82.002C82.002 98.6856 82.3779 97.0953 82.7827 94.6376L82.7249 94.6665Z" fill="#9AE6FF"></path><path d="M83.535 88.6232C83.2748 90.3003 83.0145 91.8039 82.7832 93.1339C82.8774 93.1049 82.9782 93.1049 83.0724 93.1339C83.3037 91.7749 83.5639 90.2424 83.8241 88.5076L83.535 88.6232Z" fill="#9AE6FF"></path><path d="M84.8065 82.4646C84.98 81.3947 85.1824 80.2671 85.3559 79.1105H85.0956C84.9222 80.2285 84.7487 81.3273 84.5752 82.4068C84.6564 82.4024 84.737 82.4225 84.8065 82.4646V82.4646Z" fill="#9AE6FF"></path><path d="M84.4877 83.65H84.3142V84.315C84.3142 85.327 83.9961 86.2812 83.8516 87.2065C83.9458 87.1775 84.0465 87.1775 84.1407 87.2065C84.2853 86.2812 84.4588 85.2981 84.6033 84.315V83.5922L84.4877 83.65Z" fill="#9AE6FF"></path><path d="M98.2804 10.496C97.3976 12.1782 96.8015 13.9958 96.5166 15.8741V15.8741H96.719C96.9915 14.0596 97.558 12.3017 98.3961 10.6695L98.2804 10.496Z" fill="#9AE6FF"></path><path d="M99.3498 18.303H99.5811C99.9105 15.9439 100.384 13.6071 100.998 11.3057H100.767C100.124 13.6429 99.6317 16.0187 99.292 18.4187L99.3498 18.303Z" fill="#9AE6FF"></path><path d="M87.2639 98.3676C87.2639 99.0615 87.0904 99.5531 87.0615 99.7555H87.3507C87.3507 99.5531 87.3507 99.0904 87.5531 98.4254C87.4531 98.4344 87.3527 98.4143 87.2639 98.3676V98.3676Z" fill="#9AE6FF"></path><path d="M89.8956 82.0597C90.0691 80.9417 90.2426 79.7851 90.4161 78.59C90.3218 78.619 90.2211 78.619 90.1269 78.59C89.9534 79.7658 89.7799 80.9224 89.6064 82.0597C89.7006 82.0307 89.8014 82.0307 89.8956 82.0597V82.0597Z" fill="#9AE6FF"></path><path d="M89.5771 83.3898C88.7097 89.4908 87.9868 94.4063 87.582 97.2689H87.8712C88.3049 94.3774 88.9988 89.4619 89.8663 83.3898H89.5771Z" fill="#9AE6FF"></path><path d="M101.056 19.2282C101.664 14.1392 102.039 10.8141 102.011 10.3225H101.721C101.721 10.7851 101.374 14.1392 100.738 19.2571L101.056 19.2282Z" fill="#9AE6FF"></path><path d="M91.3421 95.5339C91.1108 97.3845 90.9951 98.4254 90.9951 98.917H91.2843C91.2843 98.5989 91.2843 97.4423 91.6312 95.6207C91.5281 95.6228 91.427 95.5925 91.3421 95.5339V95.5339Z" fill="#9AE6FF"></path><path d="M99.6388 31.3434C100.13 27.2954 100.593 23.5943 100.969 20.4426C100.874 20.4659 100.775 20.4659 100.68 20.4426C100.304 23.5943 99.8412 27.3243 99.3496 31.4012L99.6388 31.3434Z" fill="#9AE6FF"></path><path d="M104.758 12.9248C104.837 12.4267 104.837 11.9194 104.758 11.4213H104.498C104.627 11.8917 104.676 12.3804 104.643 12.867C104.684 12.8808 104.723 12.9002 104.758 12.9248V12.9248Z" fill="#9AE6FF"></path><path d="M104.266 20.4715H104.41C104.613 17.8692 104.728 15.7584 104.757 14.197H104.497C104.497 15.7295 104.323 17.8981 104.121 20.5582L104.266 20.4715Z" fill="#9AE6FF"></path><path d="M103.688 29.1748C103.948 26.4569 104.15 23.9702 104.324 21.7438H104.035C103.861 23.9991 103.659 26.5436 103.398 29.3194L103.688 29.1748Z" fill="#9AE6FF"></path><path d="M97.1533 90.3871L96.6328 95.9676C96.7273 95.9403 96.8275 95.9403 96.922 95.9676L97.4424 90.6184L97.1533 90.3871Z" fill="#9AE6FF"></path><path d="M98.2514 80.2381C97.9045 83.4476 97.5864 86.4258 97.3262 88.9125H97.5864C97.8755 86.2812 98.1647 83.303 98.5117 80.0935C98.4333 80.1554 98.3454 80.2043 98.2514 80.2381V80.2381Z" fill="#9AE6FF"></path><path d="M99.7561 67.8626H99.5248L99.1778 71.13C98.8886 73.8191 98.6284 76.4214 98.3682 78.8791C98.4535 78.8571 98.5431 78.8571 98.6284 78.8791C98.8886 76.3635 99.1778 73.7323 99.4669 71.0433L99.8139 67.8048L99.7561 67.8626Z" fill="#9AE6FF"></path><path d="M96.8354 97.0952C96.7216 97.0733 96.6192 97.0119 96.5463 96.9218C96.418 98.006 96.3601 99.0974 96.3728 100.189H96.633C96.6041 99.8421 96.6909 98.7723 96.8354 97.0952Z" fill="#9AE6FF"></path></svg>