<svg xmlns="http://www.w3.org/2000/svg" width="205" height="125" viewBox="0 0 205 125" fill="none"><path d="M175.987 49.6449C176.344 48.8462 176.911 48.1591 177.628 47.6568C178.344 47.1546 179.183 46.8559 180.056 46.7925C180.535 46.7838 181.009 46.8921 181.437 47.1081C181.864 47.324 182.233 47.641 182.511 48.0317C183.018 47.5922 183.663 47.3441 184.334 47.3303C184.864 47.3386 185.373 47.5405 185.765 47.8979C186.157 48.2553 186.405 48.7436 186.462 49.2708C186.981 49.0195 187.546 48.8763 188.122 48.85C188.6 48.7945 189.085 48.8721 189.522 49.0743C189.959 49.2764 190.332 49.5952 190.6 49.9956C190.805 49.8704 191.038 49.7981 191.278 49.7852C191.414 49.7663 191.552 49.7807 191.681 49.8273C191.81 49.8739 191.925 49.9513 192.017 50.0526C192.11 50.154 192.176 50.2763 192.21 50.409C192.244 50.5417 192.245 50.6807 192.213 50.814C192.228 50.8516 192.228 50.8932 192.213 50.9309H174.023C173.953 50.3463 175.192 49.6917 175.987 49.6449Z" fill="#2D3B75"></path><path d="M40.6479 20.6902C41.0049 19.8914 41.5717 19.2044 42.2881 18.7021C43.0044 18.1998 43.8435 17.9011 44.7161 17.8378C45.1922 17.8323 45.6629 17.9396 46.0896 18.1509C46.5163 18.3622 46.8869 18.6715 47.1711 19.0536C47.6793 18.634 48.3126 18.3955 48.9714 18.3755C49.5021 18.3775 50.0138 18.5736 50.41 18.9267C50.8062 19.2798 51.0596 19.7657 51.1224 20.2927C51.6451 20.0515 52.2078 19.9088 52.7824 19.8719C53.2403 19.8449 53.6974 19.9386 54.1077 20.1438C54.518 20.349 54.8672 20.6583 55.1204 21.0409C55.3322 20.9081 55.5727 20.828 55.8218 20.8071C55.96 20.7868 56.101 20.8011 56.2322 20.8489C56.3635 20.8966 56.4808 20.9763 56.5735 21.0806C56.6663 21.185 56.7317 21.3108 56.7637 21.4467C56.7957 21.5826 56.7934 21.7244 56.757 21.8592C56.7548 21.8982 56.7548 21.9372 56.757 21.9761H38.6606C38.6138 21.3682 39.8296 20.7136 40.6479 20.6902Z" fill="#2D3B75"></path><path d="M129.096 1.42362C129.218 1.1541 129.411 0.922639 129.654 0.753847C129.897 0.585055 130.181 0.485244 130.476 0.465027C130.639 0.465027 130.8 0.503056 130.946 0.576102C131.092 0.649148 131.219 0.755205 131.317 0.885874C131.485 0.73762 131.701 0.654651 131.925 0.65207C132.106 0.651223 132.28 0.717882 132.415 0.838984C132.549 0.960086 132.633 1.1269 132.65 1.30672C132.822 1.21174 133.015 1.16337 133.211 1.16644C133.369 1.14202 133.531 1.16444 133.676 1.23092C133.822 1.2974 133.945 1.40504 134.03 1.54053H134.263C134.497 1.54053 134.637 1.70419 134.591 1.89123H128.418C128.395 1.65743 128.816 1.447 129.096 1.42362Z" fill="#2D3B75"></path><path d="M129.451 23.8904H129.708C130.026 23.44 130.437 23.0629 130.913 22.7847C131.389 22.5064 131.919 22.3333 132.467 22.2772C132.79 22.2735 133.108 22.3534 133.391 22.5091C133.673 22.6648 133.911 22.8909 134.08 23.1656C134.651 22.287 135.412 21.5474 136.306 21.0012C137.2 20.455 138.205 20.116 139.247 20.0093C139.924 20.0055 140.585 20.2069 141.144 20.5867C141.704 20.9666 142.135 21.5071 142.38 22.1369C143.095 21.4255 144.04 20.9941 145.046 20.9211C146.612 20.9211 147.571 22.3239 147.594 24.2879C148.307 23.8601 149.105 23.5965 149.932 23.5163C150.608 23.4471 151.287 23.608 151.86 23.9729C152.433 24.3379 152.866 24.8854 153.089 25.527C153.422 25.3308 153.801 25.226 154.188 25.2231C155.029 25.2231 155.52 25.9011 155.31 26.8597H125.523C125.879 26.0771 126.425 25.3956 127.111 24.8771C127.797 24.3586 128.601 24.0195 129.451 23.8904V23.8904Z" fill="#2D3B75"></path><path d="M84.9424 4.60049C85.1019 4.3769 85.3077 4.19021 85.5457 4.05306C85.7837 3.91591 86.0484 3.8315 86.3218 3.80556C86.4816 3.80344 86.6392 3.84336 86.7787 3.92133C86.9182 3.9993 87.0348 4.11257 87.1167 4.24978C87.3935 3.81703 87.7601 3.44896 88.1918 3.17058C88.6235 2.8922 89.1101 2.71006 89.6185 2.63654C89.96 2.63884 90.2933 2.7422 90.5762 2.93359C90.8591 3.12498 91.0791 3.39584 91.2083 3.71203C91.5654 3.35634 92.0383 3.14063 92.541 3.10414C93.3126 3.10414 93.8035 3.80556 93.8035 4.78753C94.1767 4.57579 94.5917 4.44811 95.0193 4.41345C95.3636 4.3635 95.7145 4.43705 96.0098 4.62106C96.3051 4.80508 96.5257 5.08769 96.6326 5.4188C96.7815 5.30656 96.9607 5.24142 97.1469 5.23176C97.5678 5.23176 97.825 5.55908 97.7081 6.05007H82.8148C83.0107 5.64281 83.3106 5.29438 83.6841 5.03989C84.0576 4.78541 84.4916 4.63385 84.9424 4.60049V4.60049Z" fill="#2D3B75"></path><path d="M102.257 124.535C45.9448 124.535 0.294891 120.996 0.294891 116.632C0.294891 112.268 45.9448 108.729 102.257 108.729C158.569 108.729 204.219 112.268 204.219 116.632C204.219 120.996 158.569 124.535 102.257 124.535Z" fill="#E5E5E5"></path><path d="M101.642 28.6956H114.672V105.425H101.642V28.6956Z" fill="#2D3B75"></path><path d="M137.104 41.0011H150.134V98.186H137.104V41.0011Z" fill="#2D3B75"></path><path d="M101.793 28.6955H114.672L109.943 20.7331H91.5084L101.793 28.6955Z" fill="#1C2547"></path><path d="M137.255 41.0012H150.134L145.405 35.2104H126.97L137.255 41.0012Z" fill="#1C2547"></path><path d="M101.643 28.1903L91.5085 20.7331V112.663H101.643V28.1903Z" fill="#293251"></path><path d="M137.104 40.7299L126.97 35.2104V103.253H137.104V40.7299Z" fill="#293251"></path><path d="M117.243 45.1152H131.552V93.9101H117.243V45.1152Z" fill="#2D3B75"></path><path d="M117.243 45.1151H131.552L128.208 41.7249H113.9L117.243 45.1151Z" fill="#1C2547"></path><path d="M117.244 45.1151L113.901 41.7249L110.534 45.1151V93.91H117.244V45.1151Z" fill="#293251"></path><path opacity="0.5" d="M45.6295 107.911H107.471V88.5286H52.9476L47.874 92.667C47.1623 93.2245 46.5832 93.9332 46.1789 94.7419C45.7745 95.5506 45.555 96.4391 45.536 97.343L45.6295 107.911Z" fill="black"></path><path d="M107.822 106.181C107.822 99.1668 104.642 93.4386 100.691 93.4386H108.266C112.194 93.4386 115.28 99.1434 115.28 106.181C115.28 113.218 112.101 118.923 108.266 118.923H100.668C104.642 118.923 107.822 113.218 107.822 106.181Z" fill="#293251"></path><path d="M100.69 118.923C96.7519 118.923 93.5592 113.218 93.5592 106.181C93.5592 99.1436 96.7519 93.4387 100.69 93.4387C104.629 93.4387 107.821 99.1436 107.821 106.181C107.821 113.218 104.629 118.923 100.69 118.923Z" fill="#293251"></path><path d="M100.129 116.118C97.3394 116.118 95.0784 111.669 95.0784 106.181C95.0784 100.693 97.3394 96.2442 100.129 96.2442C102.918 96.2442 105.179 100.693 105.179 106.181C105.179 111.669 102.918 116.118 100.129 116.118Z" fill="white"></path><path d="M148.901 106.181C148.901 99.1669 145.698 93.4387 141.77 93.4387H149.322C153.273 93.4387 156.453 99.1435 156.453 106.181C156.453 113.218 153.273 118.923 149.322 118.923H141.77C145.698 118.923 148.901 113.218 148.901 106.181Z" fill="#293251"></path><path d="M141.77 118.923C137.832 118.923 134.639 113.218 134.639 106.181C134.639 99.1436 137.832 93.4387 141.77 93.4387C145.709 93.4387 148.901 99.1436 148.901 106.181C148.901 113.218 145.709 118.923 141.77 118.923Z" fill="#1B2338"></path><path d="M59.0035 106.181C59.0035 99.1669 55.8004 93.4387 51.8725 93.4387H59.4244C63.3756 93.4387 66.4385 99.1435 66.4385 106.181C66.4385 113.218 63.2587 118.923 59.4244 118.923H51.8725C55.8004 118.923 59.0035 113.218 59.0035 106.181Z" fill="#293251"></path><path d="M51.8729 118.923C47.9345 118.923 44.7419 113.218 44.7419 106.181C44.7419 99.1436 47.9345 93.4387 51.8729 93.4387C55.8112 93.4387 59.0039 99.1436 59.0039 106.181C59.0039 113.218 55.8112 118.923 51.8729 118.923Z" fill="#293251"></path><path d="M51.2877 116.118C48.4986 116.118 46.2376 111.669 46.2376 106.181C46.2376 100.693 48.4986 96.2442 51.2877 96.2442C54.0768 96.2442 56.3379 100.693 56.3379 106.181C56.3379 111.669 54.0768 116.118 51.2877 116.118Z" fill="white"></path><path d="M116.239 109.735H125.38L125.895 109.22C126.155 108.959 126.465 108.752 126.806 108.612C127.147 108.471 127.513 108.4 127.882 108.402H150.725C151.094 108.4 151.459 108.471 151.801 108.612C152.142 108.752 152.452 108.959 152.712 109.22L153.016 109.524H153.858C155.16 109.524 156.409 109.007 157.33 108.086C158.25 107.166 158.768 105.917 158.768 104.614V97.086H106.91L111.048 106.064C111.426 107.138 112.129 108.069 113.059 108.726C113.988 109.384 115.1 109.736 116.239 109.735V109.735Z" fill="#394A8F"></path><path d="M116.239 109.735H125.38L125.895 109.22C126.155 108.959 126.465 108.752 126.806 108.612C127.147 108.471 127.513 108.4 127.882 108.402H150.725C151.094 108.4 151.459 108.471 151.801 108.612C152.142 108.752 152.452 108.959 152.712 109.22L153.016 109.524H153.858C155.16 109.524 156.409 109.007 157.33 108.086C158.25 107.166 158.768 105.917 158.768 104.614V97.086H106.91L111.048 106.064C111.426 107.138 112.129 108.069 113.059 108.726C113.988 109.384 115.1 109.736 116.239 109.735V109.735Z" fill="#293251"></path><path d="M62.2764 65.1482C62.3029 65.1151 62.3174 65.0738 62.3174 65.0313C62.3174 64.9888 62.3029 64.9476 62.2764 64.9144L59.9383 60.4722C59.9231 60.4566 59.9049 60.4442 59.8848 60.4358C59.8647 60.4274 59.8432 60.423 59.8214 60.423C59.7996 60.423 59.7781 60.4274 59.758 60.4358C59.7379 60.4442 59.7197 60.4566 59.7045 60.4722C59.6716 60.5069 59.6533 60.5529 59.6533 60.6007C59.6533 60.6486 59.6716 60.6946 59.7045 60.7293L62.1828 64.9846C62.1825 65.0177 62.191 65.0503 62.2075 65.079C62.2239 65.1078 62.2477 65.1317 62.2764 65.1482Z" fill="#293251"></path><path d="M49.2298 86.1906V81.5145C49.2298 78.966 52.9239 66.9485 58.0208 64.704C63.1177 62.4595 75.4392 61.4307 83.2015 61.8516C90.9638 62.2724 101.321 78.4984 101.321 78.4984L100.199 92.5267C98.6092 92.5267 93.5824 92.0591 92.8576 105.877C92.758 106.829 92.3033 107.71 91.5841 108.342C90.8649 108.975 89.9339 109.313 88.9764 109.29H61.8084C60.8971 109.293 60.0157 108.966 59.3278 108.368C58.6398 107.77 58.1921 106.943 58.0675 106.041C57.3661 101.107 55.4957 92.3396 51.0534 92.3396C50.3195 92.3606 49.5971 92.5273 48.9282 92.8299C48.2592 93.1325 47.6571 93.565 47.1568 94.1024C46.6565 94.6397 46.2679 95.2711 46.0137 95.9598C45.7595 96.6486 45.6447 97.3811 45.6759 98.1146C45.6621 94.7317 46.4641 91.3953 48.014 88.3883L49.2298 86.1906Z" fill="#394A8F"></path><path d="M111.585 61.7348C125.614 61.7348 141.746 78.3816 141.746 78.3816H101.251C101.251 78.3816 90.8937 62.1556 83.1314 61.7348H111.585Z" fill="#394A8F"></path><path opacity="0.4" d="M110.721 61.7348C122.621 61.7348 135.107 73.5419 138.777 77.2828C138.875 77.3708 138.943 77.4871 138.971 77.6156C139 77.744 138.987 77.8781 138.936 77.9992C138.884 78.1202 138.796 78.2222 138.684 78.2907C138.572 78.3593 138.441 78.3911 138.31 78.3816H105.577C104.265 78.3836 102.971 78.0754 101.801 77.4822C100.631 76.889 99.6175 76.0275 98.8436 74.9681C95.3365 70.292 88.5562 62.0154 83.0852 61.7348H110.721Z" fill="white"></path><path d="M101.251 78.3817L116.214 90.1888L156.452 90.0485C157.835 92.1399 158.642 94.5595 158.79 97.0626H106.909C106.307 95.7429 105.359 94.611 104.165 93.7876C102.971 92.9642 101.576 92.4799 100.129 92.3865C100.129 88.1547 101.251 78.3817 101.251 78.3817Z" fill="#394A8F"></path><path opacity="0.2" d="M111.048 86.7049C111.048 86.7049 111.212 86.7049 111.212 86.5646C111.219 86.5415 111.221 86.5171 111.217 86.4932C111.213 86.4693 111.205 86.4464 111.191 86.4263C111.178 86.4062 111.16 86.3893 111.139 86.3768C111.119 86.3643 111.095 86.3566 111.071 86.3542C107.484 85.7701 104.127 84.2089 101.369 81.8418C100.817 81.3843 100.457 80.7357 100.362 80.0251C100.267 79.3146 100.442 78.5942 100.854 78.0074C100.881 77.9742 100.895 77.933 100.895 77.8905C100.895 77.848 100.881 77.8068 100.854 77.7736C100.854 77.7736 100.644 77.7736 100.597 77.7736C100.148 78.433 99.96 79.235 100.068 80.0251C100.176 80.8152 100.573 81.5374 101.181 82.0522C103.977 84.5033 107.403 86.1231 111.071 86.7283L111.048 86.7049Z" fill="black"></path><path d="M156.453 90.0484C152.31 85.2819 147.325 81.3191 141.747 78.3582H101.252L116.215 90.1653L156.453 90.0484Z" fill="#394A8F"></path><path d="M125.146 90.0483H151.683V90.8198H125.146V90.0483Z" fill="#293251"></path><path d="M125.708 88.5287L124.258 87.1025C123.944 86.7874 123.547 86.5684 123.113 86.4712L112.358 84.1332C111.982 84.0382 111.588 84.0382 111.212 84.1332L110.651 84.2969C110.261 84.3977 109.904 84.5975 109.614 84.8767C109.325 85.156 109.112 85.5053 108.997 85.891C108.881 86.2766 108.868 86.6854 108.957 87.0779C109.046 87.4704 109.235 87.8332 109.505 88.1313L111.843 90.7732C112.251 91.2206 112.808 91.5033 113.41 91.5682L123.837 92.5268C124.18 92.5583 124.525 92.5138 124.848 92.3966C125.172 92.2794 125.465 92.0924 125.708 91.8487C125.927 91.6314 126.101 91.3728 126.22 91.0879C126.338 90.803 126.399 90.4974 126.399 90.1887C126.399 89.8801 126.338 89.5745 126.22 89.2896C126.101 89.0047 125.927 88.7461 125.708 88.5287V88.5287Z" fill="white"></path><path d="M150.934 89.2768L152.127 86.9388C152.285 86.6337 152.529 86.3817 152.828 86.214V86.214C153.118 86.0543 153.444 85.9706 153.775 85.9706C154.106 85.9706 154.432 86.0543 154.722 86.214L155.634 86.6816C156.068 86.923 156.4 87.3133 156.569 87.7805L157.107 89.3937C157.195 89.6578 157.226 89.9378 157.196 90.2146C157.167 90.4915 157.078 90.7588 156.936 90.9983C156.794 91.2378 156.602 91.444 156.373 91.6028C156.145 91.7617 155.885 91.8694 155.611 91.9188L153.132 92.3397C152.733 92.4087 152.322 92.3512 151.958 92.1751C151.593 91.999 151.292 91.7132 151.098 91.3577L150.934 91.0537C150.793 90.779 150.719 90.4744 150.719 90.1653C150.719 89.8562 150.793 89.5516 150.934 89.2768V89.2768Z" fill="white"></path><path opacity="0.4" d="M92.9753 78.8492H55.5666C55.2502 78.848 54.9384 78.773 54.656 78.6302C54.3737 78.4873 54.1285 78.2805 53.9401 78.0263C53.7517 77.772 53.6252 77.4773 53.5707 77.1656C53.5162 76.8539 53.5351 76.5337 53.626 76.2306C54.5115 72.7008 56.2088 69.4264 58.5827 66.6681C58.8536 66.4231 59.1842 66.2538 59.5413 66.1771C65.0857 65.2022 70.6837 64.562 76.305 64.2599C78.6901 64.0988 81.0819 64.4541 83.3172 65.3014C85.5525 66.1487 87.5788 67.4682 89.2578 69.1698C91.2602 71.1939 93.0684 73.4013 94.6587 75.763C94.8587 76.0644 94.9727 76.4146 94.9884 76.776C95.004 77.1374 94.9208 77.4962 94.7476 77.8137C94.5744 78.1313 94.3178 78.3955 94.0055 78.578C93.6931 78.7605 93.337 78.8543 92.9753 78.8492V78.8492Z" fill="white"></path><path d="M138.66 88.5286C137.795 88.5286 137.374 89.4405 137.725 90.5393C137.859 91.0481 138.138 91.5068 138.529 91.8597C138.919 92.2125 139.403 92.4443 139.923 92.5267C140.811 92.5267 141.232 91.6382 140.881 90.5393C140.744 90.0258 140.462 89.5629 140.068 89.2062C139.674 88.8495 139.185 88.6142 138.66 88.5286V88.5286Z" fill="#293251"></path><path d="M94.1441 78.5219V77.3295C94.1505 76.9812 94.079 76.636 93.9348 76.3189C93.7905 76.0018 93.5773 75.721 93.3107 75.4969C93.044 75.2728 92.7306 75.1111 92.3935 75.0237C92.0563 74.9362 91.7038 74.9252 91.3619 74.9915L86.6858 75.9267C86.1541 76.0407 85.6787 76.3366 85.3416 76.7634C85.0045 77.1901 84.8266 77.721 84.8387 78.2647V78.5219C84.8387 79.142 85.0851 79.7367 85.5235 80.1751C85.962 80.6136 86.5567 80.8599 87.1768 80.8599H91.8295C92.4455 80.8538 93.0342 80.6047 93.4676 80.1669C93.9011 79.7291 94.1442 79.138 94.1441 78.5219Z" fill="#293251"></path><path d="M70.1554 64.7509L71.8154 64.6107C67.1393 74.1966 68.3317 78.8493 68.3317 78.8493H64.7545C64.7078 73.0042 70.1554 64.7509 70.1554 64.7509Z" fill="#293251"></path><path opacity="0.2" d="M67.9343 106.765C67.9579 106.766 67.9813 106.761 68.0028 106.751C68.0244 106.741 68.0436 106.727 68.0591 106.709C68.0747 106.692 68.0862 106.671 68.0929 106.648C68.0996 106.625 68.1013 106.602 68.0979 106.578C68.0979 103.001 66.2743 88.1545 65.7599 85.9334C65.2899 83.9106 65.2899 81.8071 65.7599 79.7843C65.7599 79.7409 65.7426 79.6993 65.712 79.6686C65.6813 79.6379 65.6396 79.6207 65.5962 79.6207C65.5528 79.6207 65.5112 79.6379 65.4805 79.6686C65.4498 79.6993 65.4326 79.7409 65.4326 79.7843C64.953 81.8612 64.953 84.0201 65.4326 86.097C65.9236 88.3182 67.7706 103.095 67.7706 106.672C67.7872 106.7 67.811 106.724 67.8398 106.741C67.8685 106.757 67.9012 106.766 67.9343 106.765V106.765Z" fill="black"></path><path opacity="0.2" d="M68.3783 86.1906H72.6102C72.6933 86.1977 72.7768 86.1844 72.8536 86.152C72.9304 86.1196 72.9982 86.069 73.0511 86.0046C73.104 85.9402 73.1404 85.8639 73.1573 85.7822C73.1742 85.7006 73.171 85.6161 73.1479 85.536V85.045C73.1114 84.8652 73.0154 84.7029 72.8755 84.5841C72.7356 84.4654 72.5598 84.3972 72.3764 84.3904H67.9341C67.8525 84.3884 67.7715 84.4051 67.6973 84.4391C67.623 84.4731 67.5575 84.5235 67.5057 84.5866C67.4539 84.6497 67.4171 84.7238 67.3981 84.8032C67.3792 84.8826 67.3786 84.9653 67.3964 85.045V85.536C67.4126 85.646 67.4517 85.7515 67.5112 85.8454C67.5707 85.9394 67.6493 86.0199 67.7419 86.0816C67.8344 86.1433 67.9389 86.1848 68.0485 86.2036C68.1582 86.2224 68.2705 86.218 68.3783 86.1906V86.1906Z" fill="black"></path><path d="M80.1152 118.385L77.9642 118.339L77.3563 113.359L79.5073 113.405L80.1152 118.385Z" fill="#E98C84"></path><path d="M69.8752 118.222L67.7943 117.567L69.0803 112.868L71.1611 113.499L69.8752 118.222Z" fill="#CB5B51"></path><path d="M67.9355 116.959L70.2736 118.152C70.292 118.184 70.3018 118.22 70.3018 118.257C70.3018 118.294 70.292 118.33 70.2736 118.362L69.7826 120.256C69.7678 120.302 69.7431 120.344 69.7103 120.379C69.6775 120.414 69.6373 120.441 69.5927 120.459C69.548 120.477 69.5 120.485 69.452 120.482C69.404 120.479 69.3572 120.466 69.315 120.443C68.5668 120.046 68.0524 119.718 67.1172 119.251C66.182 118.783 64.7792 118.105 63.9609 117.684C63.1425 117.263 63.4465 116.422 63.8206 116.515C64.9993 116.919 66.2534 117.055 67.4913 116.913C67.5605 116.872 67.6411 116.854 67.7212 116.862C67.8012 116.871 67.8764 116.905 67.9355 116.959V116.959Z" fill="#293251"></path><path d="M77.9178 118.081H80.2558C80.2558 118.081 80.4195 118.081 80.4195 118.222L80.817 120.139C80.8277 120.184 80.8279 120.231 80.8176 120.277C80.8072 120.322 80.7865 120.365 80.7571 120.401C80.7278 120.437 80.6905 120.466 80.6482 120.485C80.6058 120.505 80.5596 120.514 80.513 120.513C79.6713 120.513 78.4322 120.513 77.38 120.513C76.3279 120.513 75.7668 120.513 74.3172 120.513C73.4288 120.513 73.2183 119.601 73.569 119.531C74.8835 119.363 76.149 118.925 77.2865 118.245C77.4755 118.128 77.6957 118.071 77.9178 118.081V118.081Z" fill="#293251"></path><path d="M74.6678 53.0839C74.1768 54.0425 73.639 55.0946 73.0779 56.0766C72.5168 57.0586 71.9556 58.0406 71.3244 58.9524C71.1607 59.1862 71.0204 59.42 70.8567 59.6304L70.4593 60.1916C70.3658 60.2601 70.2995 60.3595 70.2722 60.4721C70.2722 60.4721 70.2722 60.4721 70.132 60.4721C69.7541 60.4163 69.4029 60.2448 69.1266 59.9811C68.9213 59.8303 68.7261 59.6663 68.5421 59.4902C68.3317 59.3031 68.1446 59.0927 67.981 58.929L66.5781 59.724C66.6945 60.0384 66.8352 60.3432 66.999 60.6358C67.1477 60.9348 67.328 61.2169 67.5367 61.4775C67.754 61.778 68.005 62.0526 68.2849 62.2958C68.613 62.5904 68.9938 62.8204 69.4072 62.9738C69.9339 63.1278 70.4937 63.1278 71.0204 62.9738C71.5306 62.8434 72.003 62.5952 72.3999 62.249L72.6337 62.0152V61.8983L72.961 61.5476L73.5455 60.7995C74.3178 59.8372 75.0209 58.8215 75.6497 57.76C75.9771 57.2223 76.281 56.7079 76.5616 56.1468C76.8421 55.5856 77.1227 55.0946 77.3799 54.4867L74.6678 53.0839Z" fill="#E98C84"></path><path d="M78.5258 53.084C79.0869 55.0479 74.9486 60.4722 74.9486 60.4722L70.857 57.8302C71.6242 56.1204 72.5726 54.4978 73.6861 52.9905C75.4396 50.8161 77.8945 50.933 78.5258 53.084Z" fill="#394A8F"></path><g opacity="0.4"><path opacity="0.4" d="M78.5258 53.084C79.0869 55.0479 74.9486 60.4722 74.9486 60.4722L70.857 57.8302C71.6242 56.1204 72.5726 54.4978 73.6861 52.9905C75.4396 50.8161 77.8945 50.933 78.5258 53.084Z" fill="white"></path></g><path opacity="0.2" d="M76.0233 55.3987C74.7701 56.4242 73.8237 57.7751 73.2878 59.3032L74.9478 60.4722C75.9179 59.1649 76.793 57.7897 77.5664 56.3573C77.0988 55.7961 76.4675 55.2116 76.0233 55.3987Z" fill="black"></path><path d="M68.2617 59.2564L66.7654 56.9184L65.4795 58.9993C65.7887 59.5563 66.2987 59.9744 66.9057 60.1683L68.2617 59.2564Z" fill="#E98C84"></path><path d="M64.7072 56.895V57.6198C64.7139 57.8572 64.7957 58.0864 64.941 58.2744L65.4787 58.9291L66.7646 56.8482L65.432 56.3806C65.3209 56.3374 65.1986 56.3324 65.0844 56.3662C64.9701 56.4001 64.8703 56.4709 64.8007 56.5676C64.7315 56.6621 64.6983 56.7782 64.7072 56.895V56.895Z" fill="#E98C84"></path><path d="M66.1571 59.9579L68.4951 59.9111L67.2092 55.0714L64.8478 55.1181L66.1571 59.9579Z" fill="#394A8F"></path><path d="M65.9237 59.9579L68.2617 59.9111L66.9524 55.0714L64.6144 55.1181L65.9237 59.9579Z" fill="#D1D1D1"></path><path opacity="0.2" d="M77.3566 113.359L77.6605 115.931L79.8115 115.954L79.5076 113.405L77.3566 113.359Z" fill="black"></path><path opacity="0.2" d="M71.1611 113.499L69.0803 112.868L68.4022 115.299L70.5065 115.93L71.1611 113.499Z" fill="black"></path><path d="M87.5969 54.1361C86.5363 59.6132 86.0117 65.1807 86.0305 70.7595L74.5741 69.9178C73.4752 57.6665 76.0938 51.4239 76.0938 51.4239C76.0938 51.4239 76.8186 51.2836 77.8239 51.1901H78.8293H79.4138C81.0404 51.2271 82.6638 51.3519 84.2769 51.5642L85.2121 51.7045L86.0071 51.8448C86.5198 51.9415 86.9739 52.236 87.2714 52.6647C87.5689 53.0934 87.6858 53.6219 87.5969 54.1361V54.1361Z" fill="#394A8F"></path><g opacity="0.4"><path opacity="0.4" d="M87.5969 54.1361C86.5363 59.6133 86.0117 65.1807 86.0305 70.7596L74.5741 69.9179C73.4752 57.6666 76.0938 51.424 76.0938 51.424C76.0938 51.424 76.8186 51.2837 77.8239 51.1902H78.8293H79.4138C81.0404 51.2271 82.6638 51.352 84.2769 51.5643L85.2121 51.7045L86.0071 51.8448C86.5198 51.9416 86.9739 52.2361 87.2714 52.6648C87.5689 53.0935 87.6858 53.6219 87.5969 54.1361V54.1361Z" fill="white"></path></g><path opacity="0.2" d="M85.6331 55.7962L86.9424 57.503C86.7553 58.6408 86.6151 59.7631 86.5215 60.8698C85.5927 59.3524 85.2751 57.5389 85.6331 55.7962V55.7962Z" fill="black"></path><path d="M83.7163 48.104C83.5334 48.6667 83.491 49.2656 83.5929 49.8484C83.6948 50.4312 83.9378 50.9802 84.3008 51.4474C83.7831 51.9663 83.1668 52.3763 82.4882 52.6534C81.8096 52.9305 81.0824 53.0689 80.3495 53.0607C78.4791 53.0607 78.8999 51.728 79.4377 51.0734C81.0275 50.8162 81.0509 49.7874 81.0509 48.7353C81.0539 48.6218 81.0912 48.5119 81.158 48.42C81.2248 48.3282 81.3179 48.2588 81.425 48.221L83.1785 47.6598C83.2441 47.6457 83.3121 47.6466 83.3773 47.6625C83.4426 47.6784 83.5033 47.7088 83.5551 47.7516C83.6068 47.7943 83.6482 47.8483 83.6761 47.9093C83.7041 47.9704 83.7178 48.0369 83.7163 48.104V48.104Z" fill="#E98C84"></path><path opacity="0.2" d="M81.0267 48.782L82.7803 49.0158C82.7511 49.1031 82.7032 49.1829 82.64 49.2497C82.4209 49.533 82.1461 49.7685 81.8324 49.9414C81.5187 50.1143 81.1729 50.2211 80.8163 50.255C80.9856 49.7834 81.0572 49.2822 81.0267 48.782V48.782Z" fill="black"></path><path d="M78.7363 44.1059C77.7777 44.2696 75.9307 43.1473 76.3983 41.7679C76.936 42.4459 78.7363 42.2355 78.7363 42.2355V44.1059Z" fill="#293251"></path><path d="M82.5707 45.7426C82.5707 46.7246 83.6696 48.4781 85.1191 47.9637C84.4177 47.4493 84.5346 45.6257 84.5346 45.6257L82.5707 45.7426Z" fill="#293251"></path><path d="M83.9973 43.802C84.2544 45.9063 84.5116 47.1454 83.6699 48.4781C83.3776 48.8934 82.9788 49.2223 82.5155 49.4304C82.0523 49.6384 81.5415 49.7179 81.0369 49.6605C80.5323 49.6031 80.0524 49.411 79.6477 49.1042C79.243 48.7974 78.9283 48.3873 78.7367 47.917C77.9417 46.1401 77.6378 42.9837 79.5316 41.7679C79.9412 41.4987 80.4123 41.3377 80.901 41.2999C81.3897 41.2622 81.8799 41.349 82.326 41.5521C82.772 41.7553 83.1593 42.0682 83.4516 42.4617C83.7438 42.8552 83.9316 43.3163 83.9973 43.802V43.802Z" fill="#E98C84"></path><path d="M84.3005 45.9296C83.7862 46.4673 82.3833 44.2462 82.6405 43.4512C82.468 43.5067 82.2848 43.5205 82.106 43.4914C81.9271 43.4623 81.7577 43.3912 81.6117 43.284C81.4656 43.1767 81.3471 43.0364 81.2658 42.8744C81.1846 42.7125 81.1429 42.5335 81.1442 42.3523C79.5543 43.2174 77.2396 43.8955 77.1929 42.3523C77.2433 41.6169 77.5614 40.9254 78.0869 40.4085C78.6125 39.8915 79.3091 39.585 80.0453 39.5467C79.8816 39.9909 80.3259 40.2014 81.2611 39.9909C82.1963 39.7805 85.7735 38.1673 85.376 41.4405C86.6386 41.534 86.849 43.2408 84.3005 45.9296Z" fill="#293251"></path><path d="M85.3293 45.1347C85.2567 45.6629 84.9797 46.1415 84.5578 46.4674C83.9732 46.8883 83.6225 46.4674 83.5758 45.766C83.529 45.0646 83.5758 44.1995 84.2538 44.0592C84.4014 44.0292 84.5542 44.0361 84.6985 44.0795C84.8428 44.1229 84.9741 44.2014 85.0806 44.3079C85.1871 44.4145 85.2656 44.5458 85.309 44.69C85.3524 44.8343 85.3594 44.9871 85.3293 45.1347V45.1347Z" fill="#E98C84"></path><path d="M82.1025 70.4791L74.574 69.8244C74.574 69.8244 73.6154 85.2788 73.6856 91.8254C74.3114 99.6717 75.373 107.477 76.8653 115.206H80.5127C80.5127 115.206 80.2321 99.0031 80.2321 92.3163C80.439 84.9144 81.0634 77.53 82.1025 70.1985" fill="#293251"></path><path opacity="0.2" d="M79.2031 86.518C79.2031 86.9856 76.304 99.4941 75.3921 106.812C74.9245 103.773 74.4335 100.359 74.0828 97.46L79.2031 86.518Z" fill="black"></path><path d="M78.6422 70.2218C75.9073 76.803 73.5651 83.5406 71.6281 90.3991C70.2721 97.1327 67.934 114.247 67.934 114.247L71.8152 114.855C71.8152 114.855 74.7611 102.113 76.4912 95.6129C78.3617 88.2014 85.8434 76.4644 86.1006 70.8531L78.6422 70.2218Z" fill="#293251"></path><path d="M67.4673 114.528L72.2837 115.65L72.8916 113.78L67.631 112.891L67.4673 114.528Z" fill="#394A8F"></path><path d="M76.4208 115.486L80.7461 115.556L80.7695 114.177L75.9298 114.013L76.4208 115.486Z" fill="#394A8F"></path><path d="M81.0508 44.9009C81.0508 45.0645 81.0508 45.2282 80.9105 45.2516C80.7702 45.2749 80.6767 45.2516 80.6533 44.971C80.6299 44.6904 80.6533 44.667 80.7936 44.6437C80.9339 44.6203 81.0274 44.7372 81.0508 44.9009Z" fill="#293251"></path><path d="M78.9463 45.345C78.9463 45.5321 78.9463 45.6724 78.806 45.6957C78.6657 45.7191 78.5722 45.6957 78.5488 45.4385C78.5254 45.1814 78.5488 45.1112 78.6891 45.0878C78.8294 45.0645 78.9229 45.1814 78.9463 45.345Z" fill="#293251"></path><path d="M79.6248 45.3218C79.5168 45.8732 79.336 46.4079 79.087 46.9116C79.2181 46.9757 79.362 47.0089 79.5079 47.0089C79.6537 47.0089 79.7977 46.9757 79.9287 46.9116L79.6248 45.3218Z" fill="#CE736B"></path><path d="M81.2617 44.1059C81.2617 44.1059 81.2617 44.1059 81.2617 43.9656C81.144 43.8564 81.0023 43.7762 80.848 43.7315C80.6937 43.6869 80.5311 43.679 80.3733 43.7084C80.363 43.7262 80.3576 43.7464 80.3576 43.7669C80.3576 43.7874 80.363 43.8076 80.3733 43.8253C80.3935 43.8405 80.4181 43.8487 80.4434 43.8487C80.4687 43.8487 80.4933 43.8405 80.5135 43.8253V43.8253C80.6386 43.795 80.7695 43.7985 80.8928 43.8354C81.0161 43.8724 81.1273 43.9416 81.215 44.0358L81.2617 44.1059Z" fill="#293251"></path><path d="M84.1595 54.7908C84.8609 56.0533 85.5857 57.4094 86.217 58.7187C86.8727 60.0387 87.4276 61.4065 87.877 62.8103L88.0173 63.3013C88.0173 63.3013 88.0173 63.4883 88.0173 63.5351C88.0173 63.5818 88.0173 63.5351 88.0173 63.5351C88.0502 63.7599 88.0502 63.9883 88.0173 64.2131C87.8732 64.8223 87.6367 65.4058 87.3159 65.9432C86.5742 67.1796 85.7212 68.3457 84.7674 69.4269L85.7961 70.6661C87.1731 69.7975 88.4107 68.7254 89.4669 67.4863C90.0288 66.7842 90.4712 65.9943 90.7762 65.1483C90.9519 64.6293 91.0311 64.0826 91.01 63.5351C91.0214 63.3872 91.0214 63.2387 91.01 63.0908C91.01 62.9506 91.01 62.857 91.01 62.7635C91.01 62.67 91.01 62.3427 91.01 62.1322C90.6109 60.5291 90.0711 58.9643 89.3967 57.4562C88.7497 55.9985 88.0077 54.5848 87.1756 53.2243L84.1595 54.7908Z" fill="#E98C84"></path><path d="M86.3826 51.8682C88.37 52.4294 90.3105 57.9939 90.3105 57.9939L85.6345 59.3032C84.8115 58.1269 84.1509 56.845 83.6705 55.4922C82.5483 52.8035 83.9978 51.1201 86.3826 51.8682Z" fill="#394A8F"></path><g opacity="0.4"><path opacity="0.4" d="M86.3826 51.8682C88.37 52.4294 90.3105 57.9939 90.3105 57.9939L85.6345 59.3032C84.8115 58.1269 84.1509 56.845 83.6705 55.4922C82.5483 52.8035 83.9978 51.1201 86.3826 51.8682Z" fill="white"></path></g><path d="M85.7503 69.0995L83.5759 69.6841L84.441 71.7182C84.441 71.7182 86.3816 71.2973 86.3582 70.2452L85.7503 69.0995Z" fill="#E98C84"></path><path d="M82.7336 71.0635L83.3649 72.6767L84.417 71.7181L83.5753 69.684L82.7336 71.0635Z" fill="#CB5B51"></path><path d="M65.0356 57.8769V56.4274C65.0356 56.4274 65.3162 56.1468 65.5032 56.4274C65.6601 56.5751 65.7864 56.7523 65.8747 56.9489C65.9629 57.1455 66.0115 57.3576 66.0176 57.573C65.938 57.7987 65.7911 57.9946 65.5967 58.1341C65.5967 58.1341 65.0356 57.8769 65.0356 57.8769Z" fill="#E98C84"></path><path d="M67.3882 33.768C70.4744 33.9317 72.0643 36.2697 72.2046 39.3559C72.3448 42.4421 69.1183 46.861 67.5285 48.8717C67.4233 49.0033 67.2899 49.1095 67.1382 49.1826C66.9864 49.2556 66.8201 49.2935 66.6517 49.2935C66.4833 49.2935 66.317 49.2556 66.1652 49.1826C66.0135 49.1095 65.8801 49.0033 65.7749 48.8717C64.1851 46.9545 61.0989 42.7928 61.0989 39.8235C61.095 39.0073 61.2567 38.1988 61.5744 37.4469C61.8921 36.695 62.3591 36.0154 62.9471 35.4493C63.5351 34.8831 64.2319 34.4422 64.9952 34.1532C65.7586 33.8642 66.5727 33.7332 67.3882 33.768ZM67.0141 42.9331C67.4234 42.9332 67.8285 42.8518 68.206 42.6938C68.5836 42.5358 68.9259 42.3043 69.2131 42.0127C69.5003 41.7212 69.7266 41.3754 69.8789 40.9956C70.0313 40.6157 70.1065 40.2093 70.1003 39.8001C70.1003 38.0232 69.3521 36.7373 66.8037 36.2931C64.6059 35.9424 63.5538 37.9297 63.4135 39.7066C63.2499 41.7407 64.5592 42.9097 67.0141 42.8162V42.9331Z" fill="#64CAED"></path><path d="M59.5624 2.14754C59.6863 1.87951 59.8794 1.64938 60.1219 1.48087C60.3644 1.31237 60.6474 1.2116 60.9418 1.18894C61.1055 1.18707 61.2672 1.22429 61.4136 1.29748C61.56 1.37067 61.6868 1.47774 61.7835 1.60979C61.9555 1.46807 62.1688 1.38603 62.3914 1.37598C62.5721 1.37514 62.7466 1.4418 62.8806 1.5629C63.0147 1.684 63.0987 1.85081 63.1162 2.03063C63.2896 1.94026 63.4819 1.89219 63.6774 1.89035C63.8384 1.86983 64.0021 1.89385 64.1505 1.9598C64.2989 2.02576 64.4263 2.13112 64.5191 2.26444C64.5964 2.2509 64.6755 2.2509 64.7529 2.26444C64.7989 2.2603 64.8454 2.26674 64.8886 2.28326C64.9318 2.29978 64.9707 2.32595 65.0022 2.35978C65.0338 2.3936 65.0572 2.43419 65.0707 2.47845C65.0842 2.5227 65.0875 2.56946 65.0802 2.61514V2.61514H58.9311C58.8844 2.38134 59.3052 2.17092 59.5624 2.14754Z" fill="#2D3B75"></path></svg>