<svg xmlns="http://www.w3.org/2000/svg" width="204" height="130" viewBox="0 0 204 130" fill="none"><path d="M101.962 129.101C45.6499 129.101 -3.05176e-05 125.563 -3.05176e-05 121.198C-3.05176e-05 116.834 45.6499 113.296 101.962 113.296C158.274 113.296 203.924 116.834 203.924 121.198C203.924 125.563 158.274 129.101 101.962 129.101Z" fill="#E5E5E5"></path><path d="M35.317 33.7394C34.8964 32.7425 34.2034 31.8842 33.3175 31.263C32.4315 30.6418 31.3885 30.2829 30.3079 30.2273C29.7216 30.2205 29.1421 30.3526 28.6167 30.6128C28.0914 30.873 27.6351 31.2539 27.2852 31.7243C26.6594 31.2077 25.8795 30.914 25.0685 30.8894C24.415 30.8918 23.785 31.1332 23.2971 31.5681C22.8093 32.0029 22.4973 32.6011 22.42 33.25C21.7764 32.9529 21.0835 32.7773 20.3761 32.7318C19.8145 32.6925 19.2525 32.8023 18.747 33.05C18.2414 33.2977 17.8103 33.6746 17.4973 34.1425C17.2293 34 16.9358 33.912 16.6336 33.8834C16.4635 33.8583 16.2899 33.876 16.1283 33.9348C15.9667 33.9936 15.8223 34.0916 15.7081 34.2201C15.5938 34.3487 15.5134 34.5036 15.4739 34.6709C15.4345 34.8383 15.4373 35.0128 15.4821 35.1788V35.1788H37.8791C37.9367 34.5743 36.3246 33.7682 35.317 33.7394Z" fill="#2D3B75"></path><path d="M85.7818 18.9425H85.4364C85.0477 18.3852 84.5427 17.919 83.9562 17.576C83.3697 17.2331 82.7157 17.0216 82.0394 16.9561C81.6453 16.948 81.2562 17.045 80.9121 17.2373C80.568 17.4296 80.2814 17.7102 80.0818 18.0501C79.3715 16.9752 78.4333 16.0698 77.3337 15.3981C76.2342 14.7265 75.0004 14.305 73.7197 14.1637C72.8841 14.1612 72.067 14.4096 71.3742 14.8766C70.6813 15.3437 70.1445 16.0079 69.8334 16.7834C69.007 15.9319 67.9052 15.4014 66.7243 15.2864C64.7955 15.2864 63.5864 16.9849 63.5576 19.4031C62.6802 18.8819 61.6958 18.5669 60.6788 18.4819C59.8407 18.379 58.9928 18.5693 58.2791 19.0206C57.5654 19.4719 57.03 20.1563 56.7637 20.9577C56.3194 20.6209 55.7634 20.4665 55.2091 20.5258C54.144 20.5258 53.5682 21.3319 53.8273 22.5122H90.5894C90.1447 21.5668 89.473 20.7461 88.6342 20.1233C87.7953 19.5005 86.8155 19.0948 85.7818 18.9425Z" fill="#2D3B75"></path><path d="M173.24 52.3651H172.895C172.503 51.8132 171.997 51.3524 171.411 51.0145C170.824 50.6767 170.172 50.4696 169.498 50.4075C169.107 50.3993 168.721 50.4933 168.378 50.6801C168.034 50.8669 167.746 51.1401 167.54 51.4727C166.826 50.4018 165.886 49.4995 164.788 48.8284C163.689 48.1572 162.457 47.7334 161.178 47.5863C160.343 47.5838 159.526 47.8322 158.833 48.2992C158.14 48.7663 157.603 49.4305 157.292 50.206C156.417 49.3274 155.248 48.8043 154.01 48.7378C152.11 48.7378 150.901 50.4363 150.872 52.8545C149.99 52.3447 149.008 52.0305 147.994 51.9333C147.16 51.8374 146.319 52.031 145.611 52.4818C144.904 52.9326 144.372 53.6131 144.107 54.409C143.736 54.1616 143.312 54.004 142.869 53.9484C141.804 53.9484 141.228 54.7833 141.487 55.9636H177.962C177.527 55.0252 176.869 54.207 176.047 53.58C175.224 52.9529 174.261 52.5359 173.24 52.3651V52.3651Z" fill="#2D3B75"></path><path d="M43.8668 2.41817H43.694C43.4976 2.14287 43.2442 1.91301 42.9512 1.74414C42.6582 1.57527 42.3323 1.47134 41.9956 1.43939C41.7982 1.43377 41.6031 1.48164 41.4308 1.57794C41.2584 1.67424 41.1154 1.81535 41.0168 1.98635C40.6746 1.45478 40.2228 1.00253 39.6915 0.659935C39.1602 0.31734 38.5618 0.0923419 37.9365 0C37.519 0.000821559 37.1115 0.12767 36.7674 0.363956C36.4232 0.600241 36.1584 0.934948 36.0077 1.32424C35.568 0.886278 34.9857 0.620673 34.3668 0.575749C33.4168 0.575749 32.8122 1.43939 32.7834 2.64848C32.3399 2.37547 31.8353 2.21717 31.3153 2.18786C30.8966 2.13915 30.4739 2.23547 30.1176 2.46074C29.7614 2.68601 29.4932 3.02662 29.3577 3.42574C29.1849 3.28816 28.9736 3.20769 28.7531 3.19546C28.2062 3.19546 27.9183 3.59848 28.0622 4.17424H46.3713C46.1406 3.69048 45.7888 3.27459 45.3499 2.96691C44.9111 2.65922 44.4002 2.47019 43.8668 2.41817V2.41817Z" fill="#2D3B75"></path><path d="M166.014 4.49089H165.841C165.646 4.21159 165.394 3.97719 165.101 3.80342C164.808 3.62964 164.481 3.52051 164.143 3.48332C163.946 3.4777 163.75 3.52557 163.578 3.62187C163.406 3.71816 163.263 3.85928 163.164 4.03028C162.805 3.49444 162.333 3.04396 161.781 2.71067C161.229 2.37739 160.61 2.16943 159.969 2.10149C159.554 2.09606 159.147 2.21711 158.802 2.44852C158.458 2.67992 158.192 3.01074 158.04 3.39696C157.599 2.96518 157.015 2.70926 156.399 2.67726C155.449 2.67726 154.844 3.51211 154.816 4.7212C154.367 4.46014 153.865 4.30276 153.347 4.26059C152.929 4.21188 152.506 4.30819 152.15 4.53346C151.794 4.75873 151.525 5.09934 151.39 5.49847C151.211 5.3729 151.003 5.29377 150.785 5.26816C150.238 5.26816 149.951 5.67121 150.094 6.27575H168.404C168.18 5.80637 167.846 5.39849 167.43 5.08746C167.013 4.77644 166.528 4.57167 166.014 4.49089V4.49089Z" fill="#2D3B75"></path><path d="M79.967 107.12L109.302 106.141C109.658 106.132 110.009 106.048 110.331 105.895C110.653 105.741 110.938 105.521 111.169 105.249C111.4 104.977 111.571 104.66 111.671 104.318C111.771 103.975 111.798 103.616 111.749 103.262L107.834 79.1956C107.632 77.9577 106.682 76.1441 105.415 76.3168L75.7927 78.0441C74.7383 78.1049 73.7041 78.3586 72.7412 78.7925" fill="#293251"></path><path d="M79.9672 107.12L109.302 106.141C109.659 106.132 110.009 106.048 110.331 105.895C110.653 105.741 110.939 105.521 111.17 105.249C111.401 104.977 111.572 104.66 111.672 104.318C111.771 103.975 111.798 103.616 111.749 103.262L107.834 79.1956C107.632 77.9577 106.682 76.1441 105.416 76.3168L75.7929 78.0441C74.7385 78.1049 73.7043 78.3586 72.7414 78.7925C72.7414 78.7925 70.9853 79.8289 72.7414 83.3986C74.4975 86.9683 76.7141 107.235 79.9672 107.12Z" fill="#3A304C"></path><path opacity="0.2" d="M77.5781 83.197L102.652 81.6425" stroke="black" stroke-width="0.575758" stroke-linecap="round" stroke-linejoin="round"></path><path opacity="0.2" d="M78.4121 87.9182L103.486 86.3636" stroke="black" stroke-width="0.575758" stroke-linecap="round" stroke-linejoin="round"></path><path opacity="0.2" d="M79.5352 93.8197L104.609 92.2651" stroke="black" stroke-width="0.575758" stroke-linecap="round" stroke-linejoin="round"></path><path d="M99.1109 51.9333C99.1109 51.9333 98.4776 58.6409 95.973 59.2167C94.4368 59.5475 92.8353 59.3863 91.3958 58.7561L89.3518 57.2015L88.373 60.6561C88.787 61.1141 89.3508 61.4093 89.963 61.4884C90.5753 61.5676 91.1956 61.4255 91.7124 61.0879C91.7124 61.0879 95.7427 62.8727 97.9594 61.0879C99.5526 59.214 100.554 56.9099 100.838 54.4667L99.1109 51.9333Z" fill="#B77964"></path><path d="M101.271 48.6804C100.068 46.0711 99.7351 43.1446 100.321 40.3319C100.355 39.4744 100.57 38.634 100.952 37.8658C101.335 37.0977 101.876 36.4192 102.539 35.8753C103.203 35.3313 103.974 34.9341 104.803 34.7098C105.631 34.4856 106.497 34.4394 107.345 34.5743C109.101 34.9773 110.511 36.647 111.721 39.8137C112.93 42.9804 113.333 43.844 115.319 43.2682C117.305 42.6925 122.545 40.994 123.955 42.5198C124.378 42.9424 124.689 43.4638 124.86 44.0368C125.031 44.6098 125.057 45.2163 124.934 45.8016C124.934 45.8016 132.275 44.0455 131.642 50.5516C131.008 57.0576 120.443 63.1895 110.396 56.741C100.349 50.2925 101.271 48.6804 101.271 48.6804Z" fill="#3A304C"></path><path d="M101.039 64.4849C101.039 64.4849 99.053 81.5849 99.1106 89.6167C99.1682 97.6485 101.989 116.533 101.989 116.533H105.53C105.53 116.533 105.041 101.42 105.127 96.3819C105.214 91.344 106.106 82.65 106.106 82.65C106.581 86.1977 107.411 89.6889 108.582 93.0712C112.148 99.0175 116.83 104.218 122.371 108.386L124.761 106.199C124.761 106.199 119.435 99.6349 117.448 96.3819C115.462 93.1288 113.677 92.2076 112.958 86.1622C112.238 80.1167 113.476 70.444 111.345 64.6288L101.039 64.4849Z" fill="#4B6FC7"></path><path d="M106.135 82.5061L104.61 71.6531C103.964 76.4801 104.367 81.3896 105.79 86.047L106.135 82.5061Z" fill="#394A8F"></path><path d="M102.767 117.483L102.882 120.852L105.242 121.053L105.358 120.736V117.253L102.767 117.483Z" fill="#B77964"></path><path d="M101.645 116.217L101.846 117.455L105.905 117.57L106.164 116.044L101.645 116.217Z" fill="#394A8F"></path><path d="M121.277 108.473L125.049 104.961L125.855 106.285L122.63 109.221L121.277 108.473Z" fill="#394A8F"></path><path d="M123.091 108.473L125.567 110.545L127.15 108.674L125.135 106.573L123.091 108.473Z" fill="#B77964"></path><path d="M127.64 108.559L129.137 109.48C129.197 109.529 129.245 109.59 129.278 109.66C129.312 109.73 129.329 109.806 129.329 109.883C129.329 109.961 129.312 110.037 129.278 110.107C129.245 110.176 129.197 110.238 129.137 110.286C128.043 111.524 125.279 114.633 125.02 114.864C124.761 115.094 124.243 114.662 124.156 114.23C124.548 113.723 124.841 113.147 125.02 112.532C125.02 112.042 125.02 111.323 125.02 110.977C124.975 110.866 124.975 110.743 125.02 110.632L126.69 108.645C126.735 108.563 126.8 108.493 126.879 108.441C126.958 108.39 127.048 108.359 127.142 108.35C127.235 108.342 127.33 108.356 127.417 108.393C127.503 108.429 127.58 108.486 127.64 108.559V108.559Z" fill="#3A304C"></path><path d="M105.819 121.283L106.107 123.011C106.125 123.088 106.124 123.168 106.106 123.244C106.088 123.321 106.053 123.393 106.003 123.454C105.953 123.515 105.89 123.564 105.818 123.597C105.746 123.63 105.668 123.646 105.589 123.644C103.948 123.644 99.8313 123.644 99.4283 123.644C99.0253 123.644 99.0541 122.953 99.4283 122.579C100.07 122.546 100.697 122.379 101.271 122.089C101.688 121.772 102.082 121.426 102.451 121.053C102.562 121.011 102.685 121.011 102.796 121.053H105.359C105.448 121.053 105.536 121.074 105.616 121.114C105.696 121.154 105.766 121.212 105.819 121.283V121.283Z" fill="#3A304C"></path><path d="M111.748 55.0712L115.347 52.5379C115.347 52.5379 114.397 48.7379 112.986 48.5364C108.724 47.6477 104.323 47.6477 100.061 48.5364C100.061 48.5364 98.4484 48.997 97.959 53.5167L99.859 54.1212C99.859 54.1212 100.55 62.5561 100.982 63.8516H111.173C111.182 60.9157 111.374 57.9832 111.748 55.0712Z" fill="#394A8F"></path><path d="M112.526 54.4379C113.23 56.3854 113.769 58.3884 114.138 60.4258C112.744 59.8835 111.388 59.2487 110.079 58.5258L109.446 56.2516L107.287 55.2152L106.653 56.9425L108.438 59.1591C108.438 59.1591 113.303 63.7076 115.664 62.6713C118.025 61.6349 114.685 52.8546 114.685 52.8546L112.526 54.4379Z" fill="#B77964"></path><path d="M103.401 37.4243C102.705 38.8337 102.312 40.3734 102.249 41.944C102.249 43.9592 103.372 44.8228 105.301 45.0819C105.301 45.0819 106.135 47.6728 103.976 47.9607C103.804 47.9607 103.746 48.6228 103.746 48.7379C103.797 48.9355 103.907 49.1128 104.061 49.2465C104.216 49.3801 104.407 49.4638 104.61 49.4864C105.021 49.5288 105.436 49.5288 105.848 49.4864C106.29 49.5045 106.73 49.4205 107.135 49.2407C107.539 49.061 107.896 48.7904 108.179 48.4501L108.669 47.8455C108.669 47.8455 107.632 47.3273 107.978 43.9304C108.481 43.6244 108.866 43.1579 109.072 42.6061C109.473 42.3812 109.772 42.0099 109.907 41.5697C109.907 40.9076 109.475 39.9864 108.381 40.9076C107.596 40.3808 106.933 39.6921 106.436 38.8877C105.94 38.0832 105.621 37.1818 105.502 36.244C104.95 36.8567 104.211 37.2713 103.401 37.4243V37.4243Z" fill="#B77964"></path><path d="M103.976 41.3682L104.149 40.0439L103.228 41.0803C103.321 41.1834 103.438 41.2631 103.568 41.3131C103.698 41.363 103.837 41.3819 103.976 41.3682V41.3682Z" fill="#A04E3F"></path><path d="M104.522 42.3471C104.789 42.3952 105.063 42.3756 105.319 42.29C105.576 42.2045 105.807 42.0558 105.991 41.8577" stroke="#222221" stroke-width="0.201515" stroke-linecap="round" stroke-linejoin="round"></path><path d="M105.53 38.2015C105.75 38.131 105.985 38.1233 106.209 38.1793C106.433 38.2352 106.636 38.3526 106.797 38.5182" stroke="#222221" stroke-width="0.287879" stroke-linecap="round" stroke-linejoin="round"></path><path d="M103.804 37.7985C103.654 37.774 103.501 37.7847 103.356 37.8296C103.211 37.8746 103.078 37.9526 102.969 38.0575" stroke="#222221" stroke-width="0.287879" stroke-linecap="round" stroke-linejoin="round"></path><path d="M105.933 39.9288C105.933 40.1303 105.761 40.2743 105.645 40.2743C105.53 40.2743 105.415 40.0728 105.444 39.8712C105.473 39.6697 105.444 39.5258 105.732 39.5546C106.02 39.5834 105.933 39.7273 105.933 39.9288Z" fill="#222221"></path><path d="M103.625 39.448C103.652 39.2431 103.571 39.0636 103.445 39.0473C103.319 39.0309 103.195 39.1837 103.168 39.3887C103.142 39.5937 103.222 39.7731 103.349 39.7895C103.475 39.8059 103.598 39.653 103.625 39.448Z" fill="#222221"></path><path d="M105.732 39.5547L105.271 39.3531C105.276 39.4042 105.295 39.4529 105.325 39.4944C105.355 39.5359 105.396 39.5686 105.443 39.5891C105.49 39.6097 105.541 39.6173 105.592 39.6112C105.643 39.6052 105.691 39.5856 105.732 39.5547Z" fill="#222221"></path><path d="M103.458 39.1228L103.026 38.9213C103.026 38.9213 103.113 39.3243 103.458 39.1228Z" fill="#222221"></path><path d="M100.637 63.3046V64.5137L111.691 64.6001L111.403 63.1895L100.637 63.3046Z" fill="#293251"></path><path d="M100.637 63.3046V64.5137L111.691 64.6001L111.403 63.1895L100.637 63.3046Z" fill="#4B6FC7"></path><path d="M100.751 57.4895L94.677 78.6486C94.4739 79.3557 94.0638 79.9859 93.4994 80.4579C92.935 80.9299 92.2423 81.2222 91.5104 81.2971C91.0538 81.3828 90.5852 81.3828 90.1285 81.2971L78.6134 77.9577C77.6726 77.6833 76.8784 77.0482 76.4039 76.1908C75.9294 75.3334 75.813 74.3232 76.0801 73.3804L82.0391 52.1925C82.1985 51.6586 82.475 51.1671 82.8485 50.7537C83.2221 50.3403 83.6832 50.0155 84.1982 49.8031C84.9831 49.5419 85.8315 49.5419 86.6164 49.8031L98.1316 53.1425C99.046 53.387 99.83 53.9766 100.319 54.7874C100.807 55.5981 100.962 56.5667 100.751 57.4895V57.4895Z" fill="#293251"></path><path d="M100.751 57.4895L94.677 78.6486C94.4739 79.3557 94.0638 79.9859 93.4994 80.4579C92.935 80.9299 92.2423 81.2222 91.5104 81.2971C91.0538 81.3828 90.5852 81.3828 90.1285 81.2971L78.6134 77.9577C77.6726 77.6833 76.8784 77.0482 76.4039 76.1908C75.9294 75.3334 75.813 74.3232 76.0801 73.3804L82.0391 52.1925C82.1985 51.6586 82.475 51.1671 82.8485 50.7537C83.2221 50.3403 83.6832 50.0155 84.1982 49.8031C84.9831 49.5419 85.8315 49.5419 86.6164 49.8031L98.1316 53.1425C99.046 53.387 99.83 53.9766 100.319 54.7874C100.807 55.5981 100.962 56.5667 100.751 57.4895V57.4895Z" fill="#394A8F"></path><path d="M99.7437 57.7486L93.6695 78.9077C93.5159 79.4443 93.2414 79.9387 92.8672 80.3529C92.4929 80.7671 92.0288 81.09 91.5104 81.2971C91.0538 81.3828 90.5852 81.3828 90.1285 81.2971L78.6134 77.9577C77.6726 77.6833 76.8784 77.0482 76.4039 76.1908C75.9294 75.3334 75.813 74.3232 76.0801 73.3804L82.0391 52.1925C82.1985 51.6586 82.475 51.1671 82.8485 50.7537C83.2221 50.3403 83.6832 50.0155 84.1982 49.8031C84.6561 49.7318 85.1222 49.7318 85.5801 49.8031L97.2392 53.1713C97.7066 53.3034 98.143 53.5274 98.5229 53.8302C98.9028 54.1329 99.2186 54.5083 99.4517 54.9345C99.6849 55.3606 99.8308 55.829 99.881 56.3121C99.9311 56.7953 99.8844 57.2836 99.7437 57.7486V57.7486Z" fill="#293251"></path><path d="M99.7437 57.7486L93.6695 78.9077C93.5159 79.4443 93.2414 79.9387 92.8672 80.3529C92.4929 80.7671 92.0288 81.09 91.5104 81.2971C91.0538 81.3828 90.5852 81.3828 90.1285 81.2971L78.6134 77.9577C77.6726 77.6833 76.8784 77.0482 76.4039 76.1908C75.9294 75.3334 75.813 74.3232 76.0801 73.3804L82.0391 52.1925C82.1985 51.6586 82.475 51.1671 82.8485 50.7537C83.2221 50.3403 83.6832 50.0155 84.1982 49.8031C84.6561 49.7318 85.1222 49.7318 85.5801 49.8031L97.2392 53.1713C97.7066 53.3034 98.143 53.5274 98.5229 53.8302C98.9028 54.1329 99.2186 54.5083 99.4517 54.9345C99.6849 55.3606 99.8308 55.829 99.881 56.3121C99.9311 56.7953 99.8844 57.2836 99.7437 57.7486V57.7486Z" fill="#4B6FC7"></path><path d="M94.2212 61.763L92.9775 61.4132L88.5238 77.2488L89.7674 77.5986L94.2212 61.763Z" fill="#394A8F"></path><path d="M94.0724 58.1804L93.4679 60.3107L92.633 60.1091C92.4542 60.0631 92.2867 59.981 92.1408 59.8678C91.9949 59.7545 91.8737 59.6127 91.7847 59.4509C91.6957 59.289 91.6407 59.1107 91.6233 58.9269C91.6058 58.743 91.6261 58.5576 91.683 58.3819L92.0861 56.9713L93.5542 57.3743C93.6442 57.3871 93.7304 57.4192 93.807 57.4683C93.8835 57.5174 93.9485 57.5823 93.9977 57.6588C94.0468 57.7353 94.079 57.8214 94.0919 57.9114C94.1048 58.0014 94.0981 58.0932 94.0724 58.1804V58.1804Z" fill="#394A8F"></path><path d="M93.7274 57.1152L92.2305 56.6834L92.6335 55.0713C92.6795 54.8924 92.7617 54.7249 92.8749 54.579C92.9881 54.4331 93.13 54.3119 93.2918 54.2229C93.4536 54.1339 93.6319 54.079 93.8158 54.0615C93.9996 54.044 94.1851 54.0644 94.3608 54.1213L95.1093 54.3228L94.4471 56.6546C94.4127 56.8111 94.3175 56.9475 94.1826 57.0338C94.0477 57.1202 93.884 57.1495 93.7274 57.1152Z" fill="#394A8F"></path><path d="M95.1372 57.95L96.6341 58.3818L96.2311 59.7924C96.1303 60.1503 95.8923 60.4539 95.5688 60.6371C95.2454 60.8204 94.8626 60.8686 94.5038 60.7712L93.7266 60.5409L94.3599 58.3818C94.4068 58.2222 94.5146 58.0874 94.66 58.0066C94.8055 57.9258 94.9769 57.9055 95.1372 57.95V57.95Z" fill="#394A8F"></path><path d="M97.1533 56.3667L96.7214 57.9788L95.2245 57.547C95.0648 57.5001 94.93 57.3923 94.8492 57.2469C94.7684 57.1014 94.7481 56.93 94.7927 56.7697L95.4548 54.4379L96.2033 54.6394C96.3821 54.6854 96.5496 54.7675 96.6955 54.8808C96.8414 54.994 96.9626 55.1359 97.0516 55.2977C97.1406 55.4595 97.1955 55.6378 97.213 55.8216C97.2305 56.0055 97.2102 56.191 97.1533 56.3667V56.3667Z" fill="#394A8F"></path></svg>